<?xml version="1.0" encoding="UTF-8"?>
<!DOCTYPE svg PUBLIC "-//W3C//DTD SVG 1.1//EN" "http://www.w3.org/Graphics/SVG/1.1/DTD/svg11.dtd">
<!-- Creator: CorelDRAW 2019 (64-Bit) -->
<svg xmlns="http://www.w3.org/2000/svg" xml:space="preserve" width="295px" height="295px" version="1.1" style="shape-rendering:geometricPrecision; text-rendering:geometricPrecision; image-rendering:optimizeQuality; fill-rule:evenodd; clip-rule:evenodd"
viewBox="0 0 294.28 294.28"
 xmlns:xlink="http://www.w3.org/1999/xlink"
 xmlns:xodm="http://www.corel.com/coreldraw/odm/2003">
 <defs>
  <style type="text/css">
   <![CDATA[
    .fil0 {fill:none}
    .fil1 {fill:black}
   ]]>
  </style>
 </defs>
 <g id="Layer_x0020_1">
  <metadata id="CorelCorpID_0Corel-Layer"/>
  <rect class="fil0" width="294.28" height="294.28"/>
  <g id="_2782544670320">
   <path class="fil1" d="M119 196.94l30.04 0.01c0.63,6.77 1.12,22.96 -0.78,28.12 -3.02,0.86 -24.51,1.85 -27.47,0.08 -3.49,-2.1 -2.22,-23.17 -1.79,-28.21zm-2.82 -7.92l35.75 -0.27c-3.56,2.98 -12.68,1.58 -17.83,1.58 -4.57,0 -14.77,1.03 -17.92,-1.31zm39.64 -7.01l-43.7 0.16c0.39,-23.42 -6.39,-47.73 21.99,-47.67 27.53,0.06 21.94,23.07 21.71,47.51zm-33.28 -111.04c1.13,13.7 -5.46,40.43 11.61,41.04 16.18,0.57 12.27,-23.13 12.04,-40.81 15.59,3.93 26.58,28.83 13.34,46.51l-11.47 12.23c-10.8,-2.97 -16.76,-2.33 -28.33,-0.29 -3,-8.55 -16.74,-11.63 -16.07,-31.4 0.5,-14.75 8.91,-22.43 18.88,-27.28zm-8.49 61.19c-1.69,7.55 -8.56,4.53 -8.48,24.9 0.03,8.25 -1.42,25.71 1.76,31.76 3.09,5.87 4.89,3.44 4.91,12.04 0.04,28.01 -3.13,31.62 19.87,31.57 10.65,-0.02 22.42,1.73 23.67,-9.68 1.17,-10.63 -2.57,-24.02 2.88,-31.16 5.94,-7.79 4.2,-42.07 2.72,-46.8 -1.66,-5.32 -5.36,-7.32 -6.69,-11.63 3.19,-5.49 22.26,-16.83 16.49,-42.17 -3.48,-15.24 -15.25,-26.11 -31.36,-28.86 -0.31,8.62 -0.13,17.53 -0.12,26.18 0.01,9.92 2.42,19.17 -8.96,16.21 -3.1,-8.5 -1.34,-31.02 -1.37,-42.37 -25.84,3.71 -39.42,30.88 -28.7,53.63 4.5,9.54 8.81,10.33 13.38,16.38z"/>
   <path class="fil1" d="M199.86 195.92l30.19 0.01c0.17,6.73 1.15,22.74 -0.94,28.14 -3.59,1.03 -24.84,1.69 -27.47,0.04 -3.34,-2.11 -2.09,-22.61 -1.78,-28.19zm-2.88 -7.86l35.83 -0.23c-1.45,1.23 2.86,1.58 -8.01,1.5 -7.48,-0.05 -24.44,1.25 -27.82,-1.27zm39.71 -7.03l-43.55 0.18c0.16,-25.04 -6.25,-47.52 21.68,-47.71 27.35,-0.18 22.51,23.5 21.87,47.53zm-6.97 -51.97c-11.65,-3.22 -17.02,-2.53 -29.05,-0.49 -2.33,-7.37 -20.85,-14.76 -15.23,-37.83 3.15,-12.92 15.26,-23.02 31.37,-22.32l10.73 2.24c17.18,6.35 24.38,27.77 14.33,43.71 -5.58,8.84 -6.95,5.59 -12.15,14.69zm-34.76 2.11c-1.02,4.04 -4.54,5.98 -6.5,10.46 -2.98,6.79 -3.65,40.83 0.61,47.15 3.96,5.87 4.2,3.44 4.11,13.12 -0.26,27.44 -2.12,29.54 21.65,29.55 11.65,0 21.3,1.2 21.95,-11.52 1.04,-20.41 -3.32,-20.52 3.62,-30.3 4.9,-6.92 2.94,-21.12 2.96,-30.56 0.06,-23.32 -3.47,-17.11 -7.74,-26.91 2.89,-5.62 23.31,-17.89 16.08,-43.81 -9.94,-35.65 -62.22,-35.07 -72.27,-0.57 -2.51,8.61 -1.72,18.48 1.79,26.13 4.61,10.04 9.89,11.16 13.74,17.26z"/>
   <path class="fil1" d="M53.48 223.77c-5.89,-7.86 -3.81,-39.49 -0.34,-48.66l15.83 -0.04c3.64,11.78 3.89,41.5 0.42,47.93 -1.69,3.13 -12.98,2.38 -15.91,0.77zm14.03 -76.04c1.5,5.23 1.28,14.03 0.84,20.25l-14.01 0.02c-0.26,-3.84 -0.72,-15.44 0.42,-18.54 2.03,-5.53 8.74,-4.18 12.75,-1.73zm-0.23 -8.53c3.77,-1.64 4.52,-2.99 7.38,-5.51 -0.11,4.35 0.32,7.28 -1.28,10.33 -2.53,-1.04 -4.3,-2.72 -6.1,-4.82zm-18.2 4.38c-2.34,-2.73 -1.62,-6.28 -1.3,-11.16 2.65,4.4 2.91,4.49 7.67,6.92 -2.01,2.13 -4.1,4.38 -6.37,4.24zm-7.58 -37.57l-0.46 31.13c-0.01,10.91 1.14,8.36 6.45,13.96l0.16 18.94c-0.38,3.52 -3.12,7.17 -3.91,22.98 -0.43,8.54 0.02,24.41 2.36,32.2 1.47,4.87 4.97,5.95 10.21,6.09 17.26,0.46 22.18,3.55 22.18,-34.37 0,-16.08 -2.74,-18.73 -3.7,-25.08l0.31 -19.77c1.93,-4.65 5.35,-3.84 5.94,-9.97l0.25 -31.93c-0.35,-6.62 -2.34,-7.81 -9.25,-6.81 -7.55,9.95 1.88,19.65 -6.41,29.81 -10.92,1.57 -12,-2.16 -12,-11.99l-0.28 -15.14c-4.49,-3.87 -7.23,-5.11 -11.85,-0.05z"/>
   <path class="fil1" d="M211.94 92.1c10.39,-5.66 17.32,11.33 7.21,15.55 -9.64,4.03 -18.36,-9.48 -7.21,-15.55zm-0.67 -6.81c-19.71,6.65 -11.03,34.41 8.71,29.13 19.14,-5.11 10.59,-35.64 -8.71,-29.13z"/>
  </g>
 </g>
</svg>
