<?xml version="1.0" encoding="utf-8"?>
<!-- Generator: Adobe Illustrator 23.0.3, SVG Export Plug-In . SVG Version: 6.00 Build 0)  -->
<svg version="1.1" id="Layer_1" xmlns:xodm="http://www.corel.com/coreldraw/odm/2003"
	 xmlns="http://www.w3.org/2000/svg" xmlns:xlink="http://www.w3.org/1999/xlink" x="0px" y="0px" viewBox="0 0 295 295"
	 style="enable-background:new 0 0 295 295;" xml:space="preserve">
<style type="text/css">
	.st0{fill:none;}
	.st1{fill-rule:evenodd;clip-rule:evenodd;}
</style>
<g id="Layer_x0020_1">
	<rect class="st0" width="295" height="295"/>
	<path class="st1" d="M59.1,183.5l176.2,0l0,13.4l-176.2,0L59.1,183.5L59.1,183.5z M245.7,172.2c0.9,0.5,1.9-1,1.8,3.7
		c0,4.3-0.8,3.1-1.4,3.7L245.7,172.2z M59.3,178l175.8,0l0.2,2.4l-172.1,0.1C56,179.7,61.3,181,59.3,178L59.3,178z M47.4,172.2
		c0.4,0.4,1.6-1.3,1.5,3.7c0,4.3-1,3.2-1.5,3.7C46.3,177.3,46.3,174.6,47.4,172.2L47.4,172.2z M59.1,167.9v-3l0.1-3.1h168.1h8.1
		l0,4.1l0,7.3l-176.3,0L59.1,167.9L59.1,167.9z M243.9,181.3l4.3,1.1c-1.5,1.7,0.3,0.8-1.9,1.7c-0.2,0.1-1.8,0.5-2.2,0.6
		c-0.2,4.6,1.1,2.8,0,5c-1-1.3-0.6,0.3-1.1-2l0-8.9c0.1-4.4-0.4-8.6,0-12.9l3.8,3C243.9,172.2,243.7,168.2,243.9,181.3L243.9,181.3z
		 M47.5,168.9c2.8-2.8,0.8-1.6,3.9-3.2c0,4.1,1,21.1-1.1,24.2c-1.2-2,0.1-0.5-0.3-4.7l-3.9-2.2l4.3-1.8c0.1-7.5,0.9-7.7-1.6-10.6
		c-0.1-0.1-0.4-0.4-0.5-0.5L47.5,168.9L47.5,168.9z M59.1,73.3h176.1l0.1,80H59.1C59.1,153.3,59.1,73.3,59.1,73.3z M245.8,66.4
		c1.2,0.9,1.7-0.2,1.7,3.6c0.1,5.2-0.9,3.4-1.3,4L245.8,66.4z M47.4,66.5c1,0.9,1.4-0.4,1.5,3.5c0.2,6-1,3.4-1.5,4
		C46.4,71.6,46.2,68.9,47.4,66.5z M59.2,68.3c2.3-1.9-5.5-2.3,10.2-2.2l165.7,0l0.2,2.2C235.3,68.3,59.2,68.3,59.2,68.3z M59.4,49.5
		h175.9L235.1,63h-176C59.1,63,59.4,49.5,59.4,49.5z M244.2,61l4,1.8l-1.8,1.7c-1,0.7-0.6,0-2.3,1.5l-0.2,9l3.5,1.6l-4.4,4.1
		c-0.3-6.3-1.8-22.9,1.9-24.1C244.1,59,244,57.4,244.2,61L244.2,61z M50.4,56.7c2.1,3.3,1.3,20.3,0.8,24l-3.9-4.1
		c3.8-1.5,5.4-9,1.3-11.8c-0.2-0.1-1-0.7-1.2-0.8c-0.2-0.1-0.5-0.4-0.6-0.5c-0.1-0.1-0.4-0.4-0.6-0.6c1.7-0.7,2.8-1,4.3-1.7
		c0-0.1-0.4-2.9-0.4-2.9c0-0.2,0-0.5,0-0.7L50.4,56.7z M51.8,50c-13.1,0.1-12.3,3.3-12.3,17c0,25.2,6.2,7.6,6.2,24.9l0.3,62
		c0,16.3-6.6,4.2-6.5,23c0.2,25.5,1.9,15.9,10.5,20.1c9.5,4.7-4.9,6.4,23.3,6.4l159.9,0c5.1,0,3.5,0.6,6.6-1.9
		c2.7-2.2,2.1-1.4,3.9-5c13.9-0.5,11.1-6.1,11.1-20.6c0-11.6,0-6.5-5.2-13.4c-2.9-3.9-1.4-48.8-1.4-55.5c0-5.1-0.6-14.5,0-19
		c0.8-6.7,9.9-4.4,6.5-30.8c-0.9-6.7-4.9-7.1-11.6-7.2c-1.8-8.7-2.6-7.5-15.9-7.5L53.5,42.9C52.2,46.1,51.6,46.4,51.8,50L51.8,50z"
		/>
</g>
</svg>
