<?xml version="1.0" encoding="UTF-8"?>
<!DOCTYPE svg PUBLIC "-//W3C//DTD SVG 1.1//EN" "http://www.w3.org/Graphics/SVG/1.1/DTD/svg11.dtd">
<!-- Creator: CorelDRAW -->
<svg xmlns="http://www.w3.org/2000/svg" xml:space="preserve" width="0.116661in" height="0.409992in" version="1.1" style="shape-rendering:geometricPrecision; text-rendering:geometricPrecision; image-rendering:optimizeQuality; fill-rule:evenodd; clip-rule:evenodd"
viewBox="0 0 116.66 409.99"
 xmlns:xlink="http://www.w3.org/1999/xlink"
 xmlns:xodm="http://www.corel.com/coreldraw/odm/2003">
 <defs>
  <style type="text/css">
   <![CDATA[
    .fil0 {fill:white}
   ]]>
  </style>
 </defs>
 <g id="Layer_x0020_1">
  <metadata id="CorelCorpID_0Corel-Layer"/>
  <path class="fil0" d="M99.1 4.8c-3.45,1.61 -26.29,25.63 -32.35,31.61l-53.85 53.23c-3.08,3.33 -5.81,5.34 -8.03,12.63 -2.56,8.46 -1.14,50.41 -1.14,62.45 0,5.93 -0.48,235.07 0.15,238.93 0.7,4.24 5.42,7.09 10.46,4.92 2.75,-1.19 26.63,-26.09 32.24,-31.63l48.38 -47.43c1.37,-1.35 2.5,-2.31 3.78,-3.74l3.95 -4.17c2,-2.19 4.62,-6.74 5.77,-10.52 2.57,-8.48 1.14,-50.39 1.14,-62.45 0,-5.93 0.48,-235.07 -0.15,-238.93 -0.7,-4.24 -5.55,-7.14 -10.35,-4.89z"/>
 </g>
</svg>
