<?xml version="1.0" encoding="UTF-8"?>
<!DOCTYPE svg PUBLIC "-//W3C//DTD SVG 1.1//EN" "http://www.w3.org/Graphics/SVG/1.1/DTD/svg11.dtd">
<!-- Creator: CorelDRAW 2019 (64-Bit) -->
<svg xmlns="http://www.w3.org/2000/svg" xml:space="preserve" width="295px" height="295px" version="1.1" style="shape-rendering:geometricPrecision; text-rendering:geometricPrecision; image-rendering:optimizeQuality; fill-rule:evenodd; clip-rule:evenodd"
viewBox="0 0 117.72 117.72"
 xmlns:xlink="http://www.w3.org/1999/xlink"
 xmlns:xodm="http://www.corel.com/coreldraw/odm/2003">
 <defs>
  <style type="text/css">
   <![CDATA[
    .fil1 {fill:none}
    .fil0 {fill:#2B2A29}
   ]]>
  </style>
 </defs>
 <g id="Layer_x0020_1">
  <metadata id="CorelCorpID_0Corel-Layer"/>
  <path class="fil0" d="M72.51 88.3l2.06 -0.08c0.61,2.33 0.38,8.69 0.12,11.36l-2.05 -0.26 -0.13 -11.02zm-10.89 11.14c-0.24,-2.51 -0.47,-8.91 0.13,-11.19l1.95 0.02 0.11 11.05 -2.19 0.12zm-10.4 -11.1l1.7 -0.08 -0.04 11.32 -2.17 -0.27 -0.15 -8.1c0,-0.13 -0.02,-1.6 -0.02,-1.6 0.22,-1.23 -0.03,-0.5 0.68,-1.27zm24.95 7.66l0 -7.77 1.76 0.03c0.72,1.14 0.73,8.13 0.51,9.75 -0.31,2.25 0.02,0.5 -0.51,1.33l-1.76 0.02 0 -3.36zm-7.32 -7.6l2.33 -0.16 -0.02 11.06 -2.34 -0.02 0.03 -10.88zm-3.68 8.79l0 -5.18 0.01 -3.75 2.32 0.08 -0.03 10.85 -2.29 0.18 -0.01 -2.18zm-7.27 -0.39l0.5 -8.57 1.19 0.02c0.58,0.81 0.58,0.55 0.57,2.56l-0.01 8.55c-2.6,-0.01 -2.25,0.01 -2.25,-2.56zm-3.09 -8.55l1.19 -0.01c1.11,1.56 0.56,9.23 0.56,11.11l-2.31 0.01 -0.01 -9.76c0.28,-1.89 0.1,-0.7 0.57,-1.35zm-7.88 0.15l2.29 -0.19 0.01 11.12 -2.31 -0.07 0.01 -10.86zm-3.6 0l2.23 -0.09 -0.01 10.9 -2.25 0.08 0.03 -10.89zm-3.67 -0.14l2.32 0.08 -0.03 10.85 -2.27 0.18 -0.02 -11.11zm40.19 10.84c-0.19,-2.68 -0.46,-8.64 0.22,-10.87l3.19 0.02c0.82,4.43 0.68,9.74 -3.41,10.85zm-45.48 -10.8l3.82 -0.05 0.13 10.85c-4.32,-0.22 -4.76,-5.83 -3.95,-10.8zm-3.08 -9.89l2.79 -0.06 49.04 0.01 0.39 -0.01 2.8 0.04 -0.02 5.31 -2.78 0.1 -49.43 -0.01 -2.78 -0.05 -0.01 -5.33zm0.01 -1.95c0.33,-0.98 -0.27,-0.6 0.78,-0.92l52.63 -0.03c2.4,0 1.24,-0.04 1.58,0.95 -0.54,0.33 0.22,0.26 -1.16,0.41 -0.36,0.03 -1.2,-0.01 -1.61,-0.01l-22.33 0c-1.4,0 -28.46,0.49 -29.89,-0.4zm0.06 -2.79c1.91,-0.95 53.86,-0.6 54.87,0 -0.76,0.57 1.01,0.2 -1.11,0.44l-52.27 0.02c-0.28,-0.02 -0.51,-0.02 -0.73,-0.06 -0.84,-0.19 -0.32,-0.07 -0.76,-0.4zm0.63 -50.97l53.6 0.03c-0.51,1.57 -0.58,0.95 -1.45,2.12 -9.86,13.18 -13.16,24.85 -13.4,42.05l-23.94 0.08c0.36,-17.53 -3.93,-28.8 -13.19,-41.88 -1.08,-1.52 -0.5,-0.02 -1.62,-2.4zm11.92 -2.72c2.63,-1.36 2.4,-1.51 6.51,-1.5l16.75 0c4.13,-0.01 3.85,0.13 6.54,1.59l-29.8 -0.09zm-15.02 0.13c-2.07,-0.2 -0.89,-0.16 -1.19,-1.06 0.18,-0.16 -0.48,-0.75 1.58,-0.62 2.25,0.14 0.61,0.09 1.18,0.62 -0.31,0.76 0.16,1.23 -1.57,1.06zm58.26 -1.06c0.06,-0.05 -0.47,-0.83 1.56,-0.65 2.07,0.18 0.85,0.07 1.19,1.05 -0.31,0.28 0.16,0.3 -0.85,0.55 -2.33,0.59 -1.67,-0.32 -1.9,-0.95zm-6.19 1.02c-4.87,0.03 -5.17,0.59 -6.41,-1.6 2.79,0.02 6.1,-0.77 6.41,1.6zm-44.33 0.01c0.35,-2.4 3.61,-1.57 6.38,-1.61 -0.49,0.85 0.21,0.3 -0.78,1.19 -0.81,0.72 -4.03,0.42 -5.6,0.42zm-11.57 -1.43l0.26 3.81c4.57,1.12 2.09,-0.3 4.72,2.62 1.45,1.6 2.12,2.53 3.34,4.24 8.56,11.99 10.9,24.27 10.79,38.91 -8.35,0.03 -11.84,-1.21 -11.4,2.51 -5.53,-0.07 -4.11,-0.07 -4.11,10.11 0,7.52 -0.75,7.09 2.97,7.49 -0.07,6.32 -0.76,13.64 8.43,13.64l37.47 0c9.41,0 8.52,-7.2 8.58,-13.7l2.51 -0.23c0.6,-1.88 0.59,-15.59 -0.08,-17.03l-3.7 -0.34c0.47,-3.4 -2.87,-2.42 -9.3,-2.44l-2.08 -0.01c-0.17,-15.44 3.31,-31.15 13.49,-42.56 3.86,-4.34 1.01,-2.16 5.14,-3.23 1.41,-7.81 0.62,-6.58 -7.03,-6.58 -1.53,0 -2.97,0.4 -3.83,0.32 -5.18,-0.51 -40.6,-0.62 -44.56,-0.06l-8.67 -0.26c-2.85,0 -2.94,-0.14 -2.94,2.79z"/>
  <rect class="fil1" width="117.72" height="117.72"/>
 </g>
</svg>
