<?xml version="1.0" encoding="utf-8"?>
<!-- Generator: Adobe Illustrator 23.0.3, SVG Export Plug-In . SVG Version: 6.00 Build 0)  -->
<svg version="1.1" id="Layer_1" xmlns:xodm="http://www.corel.com/coreldraw/odm/2003"
	 xmlns="http://www.w3.org/2000/svg" xmlns:xlink="http://www.w3.org/1999/xlink" x="0px" y="0px" viewBox="0 0 295 295"
	 style="enable-background:new 0 0 295 295;" xml:space="preserve">
<style type="text/css">
	.st0{fill:none;}
	.st1{fill-rule:evenodd;clip-rule:evenodd;}
	.st2{fill-rule:evenodd;clip-rule:evenodd;fill:#FFFFFF;}
</style>
<g id="Layer_x0020_1">
	<rect class="st0" width="295" height="295"/>
	<g id="_2782551133488">
		<path class="st1" d="M171.7,178.2c0.2-0.2-1.3-1.3,2.5-1.2c5.4,0.1,1.6,0.2,2.9,1.2C175.1,179.2,174.3,179.5,171.7,178.2z
			 M152.5,178.2c0.8-0.6-2.2-1.4,2.8-1.2c4.6,0.1,1.9,0.6,2.7,1.2C155.4,179.4,154.8,179.3,152.5,178.2L152.5,178.2z M133.2,178.2
			c2-1.4-2.9-1,2.2-1.1c6.3-0.2,1.4-0.1,3.1,1.1C135.8,179.3,135.9,179.3,133.2,178.2z M109.8,178.2c0.1-0.1-1.1-1.2,2.5-1.2
			c5.6,0.1,1.5,0.1,2.8,1.2C112.9,179.2,112.2,179.4,109.8,178.2z M88.5,178.7c0.5-0.9-1.9-1.8,2.8-1.7c4.2,0.1,2.1,0.8,2.6,1.2
			L88.5,178.7z M72.1,177.2c2.1-2.8,1.7-3.3,2.8,0C73.9,178.7,72.9,177.6,72.1,177.2z M251.2,171.2c-1.3-2.2,0.1-6.2,1-8.1
			c1.1,1.4,0.7-0.4,1.3,2.2C254.7,170.6,251.3,171.1,251.2,171.2L251.2,171.2z M199.4,164.2c6.2-1,16.2-1.3,22.2,0.4l0.1,6
			l-22.2-0.3L199.4,164.2z M63.3,64.2l7.8,0.4l0,105.5l-7.8,0.3C63.2,170.4,63.3,64.2,63.3,64.2z M43.6,162.9c0,2.3,0.3,3,0.5,4.9
			c0.3,3.3,0.5,1.8-0.7,3.3c-1.2-1.3-1.8-1.5-2-4C41.1,161.6,41.7,163.9,43.6,162.9L43.6,162.9z M56.9,75.3c0-5.6-1.8-11.4,4-10.5
			c0,15.7,0.9,95.8-0.5,105.3c-5.1-0.4-3.5-3-3.5-8.9V75.3L56.9,75.3z M54.4,170.1c-6.5-2.7-4.4-11.4-4.4-24.9l0-55.9
			c-0.1-14.3-2.2-22.2,4.4-24.5C54.5,64.8,54.4,170.1,54.4,170.1z M73.5,64.5c13.8-1.2,160.1-1,163.1,0.5
			c2.2,2.2,1.6,100.9,0.3,105.2l-12.4,0.2l-1.2-8.1c-4.4-1.4-11.5-0.9-17-0.9c-9.1,0-9.1-0.7-9.4,9.1l-123.4-0.1
			C73.4,170.3,73.5,64.5,73.5,64.5z M251.6,151.9c-0.9-13.7,0-40.3-0.2-56.7c0-4-0.5-4.5,0.8-6.9
			C252.1,97.7,253.3,147.8,251.6,151.9L251.6,151.9z M42.6,152.1c-0.3-3.3-1.8-59.9,0.9-64C43.4,97.5,44.8,148,42.6,152.1z
			 M251.7,73.5l-0.1,5.4L251.7,73.5z M43.3,73.6l-0.5,5.3L43.3,73.6z M239.5,64.7c5.3,0.7,5.4,5.2,5.4,10.6l0,77.9
			c0,10.6,1.6,14.5-5,17L239.5,64.7L239.5,64.7z M168.3,179.2c1.7,3.4,1.8,3.6,11,2.6l2-4.6c11.9-1.2,28.5-0.3,41-0.3
			c23.1,0,13.6-0.3,28.9-2.3c3.1-0.4,3.7-1.7,5.8-3.7l-0.1-10.8c-2.5-1.2-1.9,0.3-5.3-2c2-4.5-0.9-1.3,4.4-3l0-69.9
			c-2.4-1.2-2.2-0.1-4.3-2l4-2l-0.4-10.2c-7.7-6.9-4.6-13.2-17.8-13.4c-50.6-0.8-107.6,0-158.9,0c-34.5,0-25.6-2-36.4,11.1
			c-3.6,4.4-2.5,5.5-2.6,12.5l4.1,2c-2.7,3.9-3.7,0-4.4,4l0,66.9l3,1.7c2,1.2,0-0.9,1.5,1.3c-1.3,3.5-0.4,1.5-5.4,3l0.4,11l3.9,3.5
			c7.2,0.1,6.2,1.1,11.2,2.1c3.2,0.6,9.2,0.3,12.7,0.3c2.8,0.5,2.1,2.2,4.3,4.7c7.6,0.4,6.3,0,8.7-4.7l5.1,0.2l2.1,4.8l9.4-0.4
			c1.7-2.4,1.2-2.4,2.4-4.7l7,0c0.1,0.2,0.3,0.5,0.4,0.7l2.1,4.3l9.6-0.2l2-4.7c12.8-0.2,8.5-0.4,11.9,4.8c11.2,1,9,0.1,12.1-4.9
			l5.1,0.2l2.1,4.8l9.6-0.3l2.2-4.7l5,0.1C168.2,178.7,167.6,177.9,168.3,179.2L168.3,179.2z"/>
		<path class="st1" d="M82.6,81.4l73.7,0.1l-0.5,35.3l-73.4,0.1L82.6,81.4z M75.8,122.9l87.1,0.5L162.8,75L76,74.8
			C76,74.8,75.8,122.9,75.8,122.9z"/>
		<path class="st1" d="M191,120.8c9.7,2,9.6,2.1,19.4,0.2l-0.1,14.9l-18.8,0L191,120.8z M197.8,80.6c22.4-4.4,30,29.8,6.9,34.9
			C182.1,120.6,173.9,85.3,197.8,80.6z M187.4,118l0.3,20.8l26,0.4c0.8-27.9-2.9-14,6.9-26.5c1.5-1.9,3.1-5,3.9-7.9
			c7.9-29.1-32.7-43.3-45.5-17.6C172.9,99.6,179.1,113.9,187.4,118L187.4,118z"/>
		<path class="st2" d="M195.7,85.3C213,77.2,222.9,105,206,111C189.3,116.9,177.9,93.6,195.7,85.3z M197.8,80.6
			c-23.8,4.6-15.6,39.9,6.9,34.9C227.8,110.4,220.2,76.3,197.8,80.6z"/>
		<path class="st2" d="M198.3,104c-5.4-4.6-4.5-6.9-0.4-11.6c9.8-1,11.4,6.4,5.4,11.8L198.3,104z M189.3,99.3
			c0.5,5.7,6.4,10.8,12.9,10.1c14.8-1.6,12.8-24.7-2.8-22.9C193.7,87.2,188.7,92.7,189.3,99.3z"/>
		<path class="st1" d="M189.3,99.3c-0.6-6.6,4.4-12.1,10.1-12.8c15.6-1.8,17.6,21.3,2.8,22.9C195.7,110.1,189.8,105,189.3,99.3z
			 M195.7,85.3c-17.8,8.3-6.4,31.6,10.3,25.7C222.9,105,213,77.2,195.7,85.3z"/>
		<path class="st1" d="M203.9,95.6c2.1,8.1-4.8,7-6.3,4.2C195.5,95.9,199.1,93,203.9,95.6z M198.3,104l5.1,0.2
			c5.9-5.4,4.3-12.8-5.4-11.8C193.9,97.1,192.9,99.4,198.3,104z"/>
		<path class="st1" d="M110.6,144c-1.1-6.7,5.4-5.4,4.1-0.4c-0.8,0.4,0.3,0.4-2.3,0.8C110.7,144.6,112,144.4,110.6,144L110.6,144z
			 M117.2,145.3c1.9-10.7-7.4-9.6-9.1-5.3C105.4,146.6,111.8,148.6,117.2,145.3z"/>
		<path class="st1" d="M157.1,144l-4.4,0.2C152.2,138.1,157.8,137.5,157.1,144z M150.4,139.2c-1.1,7.4,1.9,8.8,8.2,7.2
			c1.6-4.3,1.8-4.2,0-8.4C153.5,136.9,154.2,136.6,150.4,139.2L150.4,139.2z"/>
		<path class="st1" d="M173.6,143.8c-0.8-6.2,5.1-5.9,4.3,0.4L173.6,143.8z M178.1,146.9c5.1-5,2.2-11.7-4.3-9.3
			C169.5,139.2,168.4,147.7,178.1,146.9z"/>
		<path class="st1" d="M136.6,144.5c-4.3-0.1-2.1,1-4.8-1.6C132.5,137.9,138,138,136.6,144.5z M139.1,139.3
			c-2.4-1.8-2.5-2.3-6.8-1.8C122.9,147,141.1,153.1,139.1,139.3z"/>
		<path class="st2" d="M203.9,95.6c-4.8-2.6-8.4,0.3-6.3,4.2C199.1,102.6,206,103.7,203.9,95.6z"/>
		<path class="st1" d="M155.3,151.6c2.1,3.1,0.5,1.9,0,2.8C151.7,152,153,152.8,155.3,151.6z M151.3,154.2c1.1,4.2,9.5,3.4,7.3-2.9
			C157.1,147.3,150,149.1,151.3,154.2z"/>
		<path class="st1" d="M111.2,153.2c2.1-2-3.1-1.5,1.2-1c2.9,0.4-0.2-1,1.7,1C110.9,155.5,112.1,153.8,111.2,153.2z M110,156.4
			c10,0.9,8.6-7.9,0.4-6.9C108.1,153.1,108.4,152.3,110,156.4z"/>
		<path class="st1" d="M134.3,151.5c2.9,3.2,0.8,1.8,0,2.9c-1.7-1.6-0.6,0.3-0.8-1.8C133.2,149.2,133.3,152.7,134.3,151.5
			L134.3,151.5z M133.5,157.1l4.7-2.1l-0.8-4.8c-3.2-2-2.8-1.4-6.3-0.4l-0.4,4.8L133.5,157.1L133.5,157.1z"/>
		<path class="st1" d="M176.3,151.4c1.6,2.6,1.1,0.5,0,2.9C173.3,152.7,172.6,152.7,176.3,151.4z M179.4,155.6
			c0.6-9.5-8-8.9-7.1-0.1C176.1,157.5,175.5,157.2,179.4,155.6z"/>
		<path class="st1" d="M91.3,151.5c2.9,3.2,0.6,2.1,0,2.9C91.3,154.4,87.7,154.7,91.3,151.5z M94.6,150c-5-1.9-7.2-1.3-6.7,4.9
			c1.4,1.1,1.4,1.2,3.6,2.2l3.7-2L94.6,150z"/>
		<path class="st2" d="M251.7,78.9l0.1-5.4L251.7,78.9z"/>
		<path class="st2" d="M42.8,78.8l0.5-5.3L42.8,78.8z"/>
	</g>
</g>
</svg>
