<?xml version="1.0" encoding="utf-8"?>
<!-- Generator: Adobe Illustrator 23.0.3, SVG Export Plug-In . SVG Version: 6.00 Build 0)  -->
<svg version="1.1" id="Layer_1" xmlns:xodm="http://www.corel.com/coreldraw/odm/2003"
	 xmlns="http://www.w3.org/2000/svg" xmlns:xlink="http://www.w3.org/1999/xlink" x="0px" y="0px" viewBox="0 0 295 295"
	 style="enable-background:new 0 0 295 295;" xml:space="preserve">
<style type="text/css">
	.st0{fill:none;}
	.st1{fill-rule:evenodd;clip-rule:evenodd;}
</style>
<g id="Layer_x0020_1">
	<rect class="st0" width="295" height="295"/>
	<g id="_2782475074864">
		<path class="st1" d="M254,181c-5,12.9-58.5,16.3-74.7,16.4c-18.8,0-43.6-1.5-61.6-7.2c-5.7-1.8-11.7-5.7-15.7-7
			c2.5-1.8-5-3.8,7.3,1.3c2.7,1.1,5.3,1.9,8.2,2.8c19.3,5.5,40.5,6.9,60.7,6.9C204.2,194.2,234.8,191.7,254,181L254,181z
			 M101.3,170.6c0.9-3.7,2.2-3.9,4.4-5.7c22.3,8.5,43.6,14.7,71.6,15c25.5,0.2,54.7-5.3,74.3-14.4c1.2,1.4,1.9,2.1,2.9,4.1
			C248.1,193,112.8,193.7,101.3,170.6L101.3,170.6z M109.5,163.6l-0.3-5.3c9.7,2.1,20.7,6.9,32.1,9.3c11.8,2.5,24.1,4.1,37.1,4.1
			c34.8-0.1,41.6-6.2,68.9-12.8l0.4,6.1c-22.6,6.1-42.6,12.1-69.3,12.2C158.8,177.3,124.6,171.4,109.5,163.6L109.5,163.6z
			 M108.3,149.4l32.8,9.5c24.1,5.8,50.7,5.8,74.8,0.2c11.3-2.6,28.4-9,32.6-9.8l0,5.7c-15.1,7.8-51.2,14.2-72.1,13.9
			c-19.4-0.2-37.5-4.2-55.4-9.9C114.4,156.9,107.7,156.6,108.3,149.4L108.3,149.4z M108.6,140.8l32.3,9.3
			c12.2,2.7,24.7,4.3,37.5,4.3c41.1,0,60.5-12.4,69.9-13.5c0.6,4.2-0.5,5.1-4.2,6.4l-25.7,8.2c-36.8,9-70,4.6-105-8
			C109.2,146.1,107.8,146.1,108.6,140.8z M54.3,156.8c-0.6-1.3-2.9-0.8,2.7-4.7c6.3-4.5,11.1-7.7,18.5-10.5
			c4.9-1.8,28.4-6.3,30.4-5.1c-6.3,9.3-18.2-0.2-40.6,13.9C62.3,152.4,56.3,157.1,54.3,156.8L54.3,156.8z M109.1,133.4
			c1.8-0.8-3-2.2,3.9-0.5c0.6,0.2,2.7,1.2,3.6,1.5c31.6,11.4,65.8,14.4,99,7.3c5.6-1.2,11.3-2.6,16.7-4.3c5.5-1.8,10.8-4.3,16.3-5.3
			c0,5.7-0.1,5-4.8,6.7c-3,1.1-5.2,1.8-8.1,2.9c-5.2,1.9-11.3,3.5-17,5c-33,8.1-64.8,5.2-96.5-4.9
			C118,140.6,106.7,138.5,109.1,133.4z M108.7,123.9c8-0.2,58.1,26,123.7,4.8c4.4-1.4,11.7-4.5,15.8-5.1c0.6,6.9-6.1,7.5-12.4,9.5
			c-5.4,1.8-11.3,3.6-17.1,4.9c-33.7,7.8-64.6,5.6-96.9-4.9C115.5,131.2,108.7,130.9,108.7,123.9z M51.5,124.6
			c3.8-1.4,28.5,11.6,49.4,5.4c0.3-0.1,2.9-1,3-1c2.9-0.4,1.4-0.6,3,0.9c-8.6,10.4-37.7,2.9-50.5-1.3c0,0-3-1-3-1
			C47.8,124.4,52.8,126.7,51.5,124.6z M178.3,128.3c41.8-0.1,57.7-11.3,70.1-12.9c-0.2,5.2-0.4,4.9-4.9,6.5
			c-41.9,15.4-79.4,16.1-122.2,2.6c-4.9-1.5-12.8-2.4-12.9-8.4c3.7-0.8,23.8,6.3,33,8.2C153.4,126.8,165.9,128.3,178.3,128.3
			L178.3,128.3z M121.1,115.9c-10.3-3.4-14.2-3.3-11.8-8.4c2.5-0.9,3.9,0.4,7.7,1.7c19.1,6.6,40.9,10.3,61.4,10.4
			c13,0,26.3-1.2,38.1-3.8c5.7-1.3,11.3-2.6,16.7-4.2c5-1.5,10.6-4,14.9-4.6c0.8,6.4-3.4,6.2-13.1,9.4c-5.6,1.9-11.3,3.4-17.3,4.8
			C185.7,128.4,152.1,126,121.1,115.9L121.1,115.9z M248.9,99.8c-1.5,5.5-8.3,6.3-13.4,7.9c-31.7,10-63.9,11.8-96.6,4.4
			c-6.6-1.5-28.9-5.4-30.2-12.3c31,10.6,73.8,12,108.3,7.2L248.9,99.8L248.9,99.8z M254,86.8c-4.7,18.2-132.8,24.3-152.2,0.1
			c4.1,0.9,10.5,4.6,16.2,6.2C155.8,103.7,222.1,102.5,254,86.8z M101.3,75.6c12.9-24.1,140.3-22.8,153.3,0
			c-1.7,4.7-1.9,3.9-6.1,6.1c-8.4,4.4-18.5,6.7-28,8.2C192.8,94.6,108.3,96.2,101.3,75.6z M105.4,97.9c2.6,15.6,0.2,3.8,0.5,11.5
			l0.1,9.7c0,0.3,0.1,0.5,0.2,0.8c1,12.7-30.4,7.3-36.2,6c-13.8-3.2-26.5-11.1-33.8-11.2c-2.2,2.7-2.7,3-2.8,7.2
			c2.3,1.3,6,3.2,8.7,4.9c6.3,3.9,27.1,8.3,33.9,10.5c-2,1.7-11,4.4-19.3,10.5c-15.1,11.2-13.4,6.9-20,11c-0.9,4.3-1.3,7.6,3.6,7.6
			c13.1,0,15.3-5.7,25.6-12.3c14.8-9.5,21.5-7.6,39.7-11.9c0.4,4.8,1.1,2.1,0.3,6.8c-0.8,4.9-0.4,3.3,0.5,7.5
			c-11.5,10.5-11.5,2.7-11.3,22c0.3,31.5,112.8,28.3,145,17.9c7.7-2.5,19.5-7.1,20.6-14.1c2.1-13.2-0.3-21.3-10.9-24.5
			c2.2-9.5,0.3-14,1-22.4l0.2-37.9c4.1-1.8,7.6-3.9,9.1-7.8c1-2.5,1.2-13.8,0.6-16.5c-6.5-24.5-107.6-25.8-145.7-13.8
			c-8.4,2.6-18.9,7-20.3,14.7c-0.2,0.9,0.4,14.4,0.7,15.3C96.7,93.3,101.6,96.2,105.4,97.9z"/>
		<path class="st1" d="M145.8,75.6c6.9-9.5,59.9-10,64.4,1C198.6,83.7,152.8,86.7,145.8,75.6z M142.4,78.1c10.7,7.9,22.5,8.3,37,8.1
			c48.8-0.4,43.5-21.5-3-21C166.6,65.4,142.1,65.4,142.4,78.1z"/>
	</g>
</g>
</svg>
