<?xml version="1.0" encoding="utf-8"?>
<!-- Generator: Adobe Illustrator 23.0.3, SVG Export Plug-In . SVG Version: 6.00 Build 0)  -->
<svg version="1.1" id="Layer_1" xmlns:xodm="http://www.corel.com/coreldraw/odm/2003"
	 xmlns="http://www.w3.org/2000/svg" xmlns:xlink="http://www.w3.org/1999/xlink" x="0px" y="0px" viewBox="0 0 295 295"
	 style="enable-background:new 0 0 295 295;" xml:space="preserve">
<style type="text/css">
	.st0{fill:none;}
	.st1{fill-rule:evenodd;clip-rule:evenodd;}
</style>
<g id="Layer_x0020_1">
	<rect class="st0" width="295" height="295"/>
	<path class="st1" d="M86,165l0-3c5.1-2,109.6-1.3,123.3-0.7l0.1,4.9l-119.9,0.2C85.6,165.9,87.3,165.9,86,165z M207.2,149.7
		c-34.2,1.4-83.3,0.4-119.3,0.3c3-3.9,22.9-2,28.6-2h61.9C185.1,148,203.7,146.4,207.2,149.7z M136.2,143
		c7.2-27.2,4.7-23.8,4.7-54.1l13.9,0.3c-3.8,14.6-0.2,40.1,3.9,53.7L136.2,143L136.2,143z M171.8,138.4l30.1-0.3
		c-2.1,2.5-1.9,2.7-3.2,4.8h-25.3L171.8,138.4z M93.8,138.3l29.5-0.2l-1.3,4.5l-25.7,0.4C95.1,140.6,94.8,140.9,93.8,138.3z
		 M206.8,139.7c1.3-2.6,0.5-2.7,4.1-2.3C208.6,139.2,209.3,138.7,206.8,139.7z M84.3,137.5c3.3,0.1,2.6-0.2,4,2.3L84.3,137.5z
		 M71.6,126.3c1.7,1.5,3.9,2.5,4.3,5c-0.2-0.9,0.8,0.2-1.5-2C74.3,129.2,71.6,126.3,71.6,126.3z M185.2,124.5
		c3-6,23.8-28.5,30.2-29.2c4.7-0.5,13.7,0,18.9,0c-0.6,7-2.8,10.3-5.5,15.2c-5.7,10.5-10.5,16.7-20.1,15.1c-3.5-0.5,0.4-0.4-3.4-1.1
		C201.3,123.9,189.8,124.4,185.2,124.5L185.2,124.5z M86.5,99.2c5.3,5.2,19.3,15.7,23.5,25.3c-4.9,0-17-0.6-21,0.3
		c-8.1,1.7-9.6,2.2-14.2-2.8C70.3,117.2,61,105.1,61,95.5C73,94.5,80.7,93.5,86.5,99.2z M165.5,124c-3.2-7.5-4.9-25.6,3.7-28.2
		c4-1.2,28.9-0.5,35.2-0.5c-1.1,2.4-20.6,18.4-25.8,29L165.5,124z M90.7,95.3c6.1,0,31.1-0.7,35.2,0.4c8.6,2.3,7.3,21.6,3.6,28.6
		l-12-0.1C117.5,124.3,90.7,95.3,90.7,95.3z M37.4,82.1c4.9-1.8,218.8-0.8,220.5,0c-3.3,2.4-97.4,1-110.2,0.9
		C143.7,83.1,41.4,84.4,37.4,82.1L37.4,82.1z M47.6,88.9c3.8,2.7,4.4,12.5,6,17.1c5.9,17,13.7,23.7,24.9,34.1
		c3.4,3.1,4.6,2.3,6.9,5.1c-12,10.5-6.7,11.1-4.9,16.3c2.1,5.8-1.4,4.2-2.3,8.5c-1.9,8.9,5.4,9.6,8.9,14.1h102.3
		c16.4,0,17.8,1.6,27.4-7.6c0.9-11.6-5.3-8.8-0.6-17.7c3.7-7.1-3.3-11.2-6.5-13.8c4.2-3.9,8.1-4.9,12.6-10
		c4.2-4.8,5.2-3.6,10.9-12.1c6.1-9.3,11-21,13-33.8l14.9-0.2c2.7-3.9,2-4.4,1.8-10.5c-2.3-2.6-1-0.6-2.6-2.2c-1.7-1.6-0.5-1.1-2.9-3
		L37.6,73c-1.2,1.7,0,0.6-1.7,2.3L33,77.8c-1.2,2-1.3,5.8-0.5,8.2C33.9,90.7,42.7,88.9,47.6,88.9L47.6,88.9z"/>
</g>
</svg>
