<?xml version="1.0" encoding="UTF-8"?>
<!DOCTYPE svg PUBLIC "-//W3C//DTD SVG 1.1//EN" "http://www.w3.org/Graphics/SVG/1.1/DTD/svg11.dtd">
<!-- Creator: CorelDRAW 2019 (64-Bit) -->
<svg xmlns="http://www.w3.org/2000/svg" xml:space="preserve" width="295px" height="295px" version="1.1" style="shape-rendering:geometricPrecision; text-rendering:geometricPrecision; image-rendering:optimizeQuality; fill-rule:evenodd; clip-rule:evenodd"
viewBox="0 0 294.28 294.28"
 xmlns:xlink="http://www.w3.org/1999/xlink"
 xmlns:xodm="http://www.corel.com/coreldraw/odm/2003">
 <defs>
  <style type="text/css">
   <![CDATA[
    .str0 {stroke:#2B2A29;stroke-width:2.08;stroke-miterlimit:2.61313}
    .fil0 {fill:none}
    .fil1 {fill:black}
   ]]>
  </style>
 </defs>
 <g id="Layer_x0020_1">
  <metadata id="CorelCorpID_0Corel-Layer"/>
  <rect class="fil0" width="294.28" height="294.28"/>
  <g id="_2782621631088">
   <path class="fil1 str0" d="M207.31 143.15c-1.73,-5.11 -1.57,-2.59 -1.22,-8.23 0.3,-4.76 -1.01,-3.13 -1.58,-7.75 -1.01,-8.21 1.48,-9.94 0.44,-14.55 0,-0.02 -0.67,-1.8 -0.8,-2.07l-0.31 80.35 -8.37 -30.72c0.4,11.07 7.01,28.44 8.56,40.82l6.2 43.56 -16.27 5.19c9,0.09 11.28,-3.41 16.83,-3.61 0.05,4.47 0.24,3.61 -4.4,4.75 -23.71,5.83 -90.95,5.63 -115.51,2.54 -6.68,-0.84 -10.07,-0.15 -10.9,-6.89l7.7 1.59c-1.49,-1.12 1.04,0.16 -1.94,-1.22l-5.31 -2.1c-0.96,-11.62 3.99,-31.68 6.11,-41.45l-3.08 5.42c1.6,-24.55 7.09,-51.05 3.79,-76.27 -0.31,1.07 -0.26,1.91 -0.87,3.33 -1.75,4.14 -0.65,-1.07 -1.7,3.41l1.3 9.34c-0.07,-7.89 -1.48,-7.25 1.05,-10.7 -1.13,10.73 -0.63,21.04 -1.36,31.15 -0.92,12.67 -11.46,76.49 -6.28,82.74 1.16,1.41 4.35,2.18 6.68,2.67 2.62,0.54 4.92,0.7 7.61,0.94 24.18,2.21 105.13,4.32 118.44,-4.6 1.06,-14.72 -5.25,-36.24 -5.66,-51.79 -0.48,-18.63 -0.69,-37.24 -1.03,-55.85 1.85,-0.75 1.04,2.72 1.57,0.02 0.02,-0.11 0.21,0.02 0.31,-0.02z"/>
   <path class="fil1 str0" d="M169.77 46.19c-16.75,0.56 -26.23,0.28 -42.68,-0.96 1.93,3.44 0.01,0.63 1.98,2.82 0.07,0.09 1.81,1.75 1.96,1.88 15.46,13.06 33.35,7.45 38.74,-3.74z"/>
   <path class="fil1 str0" d="M179.01 43c2.08,1.67 0.79,1.6 0.76,5.81 0.23,-0.37 0.84,-1.25 1.32,-1.79l1.26 -1.02c10.63,3.86 38.37,16.88 42.56,23.38l-2.79 9.47c1.73,-2.86 3.04,-5.57 5.18,-8.21l1.54 9.96c0.14,0.03 0.39,-0.01 0.45,-0.02l0.82 -0.11c3.77,-0.49 -2.45,-1.21 1.03,-0.1 3.77,9.83 6.48,19.55 9.79,29.11 1.45,4.2 9.18,19.58 10.11,28.91l-5.29 2.72c4.13,-1.05 3.14,-1.49 7.54,-0.17 -3.07,-20.2 -8.4,-24.63 -11.26,-33.57 -1.85,-5.77 -3.24,-11.18 -5.11,-16.76 -7.17,-21.37 -9.01,-24.62 -28.68,-35.16 -4.41,-2.36 -26.2,-12.52 -29.23,-12.45z"/>
   <path class="fil1 str0" d="M61.38 83.96c-2.98,2.28 -2.65,2.93 -4.83,7.08l-9.03 20.93 -7.78 32.26c0.17,0.12 0.44,0.32 0.63,0.44 0.46,0.31 1.34,0.76 1.87,1.04 1.46,0.77 2.45,1.24 4.03,1.94 8.09,3.61 17.47,7.79 26.16,8.82 -0.61,-0.42 -0.32,-0.56 -2.4,-1.48 -0.99,-0.45 -1.35,-0.45 -2.44,-0.74 -8.39,-2.24 -16.82,-6.24 -24.84,-10.01 -2.15,-1.01 -1.54,-0.69 -2.95,-2.08 1.24,-2.74 -0.08,-1.81 3.29,-2.84 -1.99,-3.92 0.24,-7.75 1.95,-12.88l13.22 -35.11 1.05 3.31 2.07 -10.68z"/>
   <path class="fil1 str0" d="M65.87 71.56l17.23 -12.64c7.4,-3.48 14.18,-5.72 20,-10.12 -2.18,0.05 -37.14,13.62 -37.23,22.76z"/>
   <path class="fil1 str0" d="M213.23 122.33l-3.77 2.49 0.37 -5.1c0.84,-9.37 2.15,-16.07 2.55,-24.4 3.13,-1.75 -2.13,-0.13 0.87,-0.06 0.03,0.01 0.15,2.48 0.61,0.06 0.02,-0.1 0.22,0.03 0.38,0l0.4 -7.21c-2.98,1.61 -2.42,-1.9 -3.53,10.14 -0.33,3.62 -1.01,7.62 -1.53,11.19 -1.07,7.36 -2.88,15.22 -3.5,22.18l7.15 -9.29z"/>
   <path class="fil1 str0" d="M93.87 177.32c-1.26,4.32 -3.28,8.32 -2.81,12.77 2.09,-4.85 9.18,-22.65 6.35,-27.65l-2.13 4.22c1.52,3.05 -0.13,6.31 -1.41,10.66z"/>
   <path class="fil1 str0" d="M82.97 76.11c-2.15,-5.56 -1.61,-5.1 -3.05,-4.7l-0.23 0.69c0,0 7.87,20.45 7.41,31.76 0.55,-10.8 -0.5,-18.35 -4.13,-27.75z"/>
   <path class="fil1 str0" d="M226.62 153.72c5.7,-1.7 24.01,-8.09 27.71,-8.08l0.2 -4.84 -2.12 2.74c-0.16,0.16 -0.33,0.39 -0.5,0.53 -1.39,1.17 -1.6,0.87 -3.4,1.42l-15.11 4.83c-9.73,3.04 -5.45,1.59 -6.78,3.4z"/>
   <path class="fil1 str0" d="M68.69 118.14c-0.35,-4.78 -1.74,-10.08 -2.5,-15.3 -0.39,-2.61 -0.5,-5.6 -0.69,-8.38 -0.35,-5.01 -0.03,-4.24 -2.01,-6.49 0.03,7.08 2.18,25.25 5.2,30.17z"/>
   <path class="fil1 str0" d="M55.92 118.24c2.07,2.41 -0.99,0.03 0.92,-0.06l2.78 13.24c1.07,3.04 0.41,1.29 1.58,2.57 -2.55,-9.13 -1.9,-19.95 -4.61,-23.12l-0.67 7.37z"/>
   <path class="fil1 str0" d="M219.2 102.42l2.17 -3.02c0.31,-0.8 0.59,-2.47 0.72,-3.24 0.84,-5.04 0.42,-8.74 2.87,-8.82l-0.75 -3.66c-3.17,3.22 -4.29,13.97 -5.01,18.74z"/>
   <path class="fil1 str0" d="M209.49 150.99c-0.36,-1.28 -0.21,-1.52 -0.53,-2.72l-0.78 -1.68c-0.29,4.86 -0.7,4.25 1.5,8.11 1.03,0.83 7.93,1.86 11.86,-0.73 -13.24,-0.21 -10.98,0.84 -12.05,-2.98z"/>
   <path class="fil1 str0" d="M137.47 64.47c5.33,2.2 13.27,3.54 19.25,1.33l-19.25 -1.33z"/>
   <path class="fil1 str0" d="M72.25 155.72c3.35,2.56 8.31,2.2 12.2,0.98l-0.64 -2.73c-3.11,2.97 -4.32,1.79 -11.56,1.75z"/>
   <path class="fil1 str0" d="M131.55 61.37c-0.14,-0.19 -0.37,-0.71 -0.44,-0.55 -0.07,0.16 -0.36,-0.43 -0.46,-0.53 -0.1,-0.1 -0.37,-0.38 -0.5,-0.5l-8.53 -7.39c1.19,4.2 5.17,7.84 9.93,8.97z"/>
   <path class="fil1 str0" d="M65.87 71.56c-1.71,1.32 -1.26,0.3 -2.11,3.81 -0.52,2.18 -0.24,2.02 -1,4l4.31 4.24c-1.68,-6.5 -3.27,-5.13 -1.2,-12.05z"/>
   <path class="fil1 str0" d="M73.06 102.45c-0.63,6.24 2.31,12.4 4.77,15.46l-4.77 -15.46z"/>
   <path class="fil1 str0" d="M221.6 143.19c9.19,-10.38 3.86,-1.58 7.47,-7.01 1.73,-2.61 -0.22,0.83 1.33,-3.3 -3.58,2.18 -2.49,1.88 -5.22,5.29 -1.78,2.22 -2.66,2.47 -3.58,5.02z"/>
   <path class="fil1 str0" d="M83.71 149.12l-3.4 -10.51c-2.21,-4.42 -0.2,-0.75 -1.91,-2.77 0.55,3.22 1.19,4.63 2.22,7.39l3.09 5.89z"/>
   <path class="fil1 str0" d="M222.61 67.38c-3.09,1.17 -1.73,2.68 -2.54,7.45 2.17,-3.1 2.15,-3.64 2.54,-7.45z"/>
   <path class="fil1 str0" d="M119.54 54.54l-7.49 -7.3c1.54,3.9 2.94,5.57 7.49,7.3z"/>
   <path class="fil1 str0" d="M117.47 46.27l-0.37 -2.78c1.59,-2.22 0.2,-0.9 3.1,-2.93l-5.17 0.57 2.44 5.14z"/>
   <path class="fil1 str0" d="M213.23 122.33c0.17,-0.12 2.24,-1.34 2.27,-1.37l0.08 5.45 1.35 -9.43 -3.7 5.35z"/>
   <path class="fil1 str0" d="M76.03 127.6l1.53 5.44c1.5,-3.33 2.48,-2.97 -1.53,-5.44z"/>
   <path class="fil1 str0" d="M197.29 159.13l-2 -3.93c-0.86,1.24 -1.48,-1.69 -0.68,4.02 1.94,-0.86 -0.56,-0.84 2.68,-0.09z"/>
   <path class="fil1 str0" d="M216.45 147.31c2.11,3.35 7.49,0.95 9.84,0.07 -4.11,0.11 -6.69,1.76 -9.84,-0.07z"/>
   <path class="fil1 str0" d="M81.82 123.91c0.58,2.91 -0.29,0.47 1.71,1.14l-0.76 -4.26c-0.58,0.85 -1.96,-1.96 -0.95,3.12z"/>
   <path class="fil1 str0" d="M120.28 40.21c4.23,-1.97 1.56,0.06 3.48,-3.25 -3.1,1.13 -2.88,0.19 -3.48,3.25z"/>
   <path class="fil1 str0" d="M167.44 61.43l-5.97 2.98c1.84,-0.2 2.58,-0.23 3.91,-0.94 4.13,-2.23 0.64,-0.19 2.06,-2.04z"/>
   <path class="fil1 str0" d="M219.2 102.42l-4.1 8.75c1.97,-2.06 3.48,-5.39 4.1,-8.75z"/>
   <path class="fil1 str0" d="M83.71 149.12l0.97 3.48c0.77,-1.29 1.19,0.31 0.83,-2.24 -0.39,-2.76 -0.15,-0.58 -1.8,-1.24z"/>
   <path class="fil1 str0" d="M137.47 64.47c-2.41,-1.34 -3.28,-2.38 -5.92,-3.1 2.21,2.25 2.78,2.04 5.92,3.1z"/>
   <path class="fil1 str0" d="M121.62 52.4c-0.76,-2.53 1.03,0.52 -0.53,-1.47 -1.12,-1.44 -0.58,-0.76 -1.54,-1.42l0.5 2.1c0.38,3.09 -0.01,-0.15 1.57,0.79z"/>
   <path class="fil1 str0" d="M234.19 144.88c3.27,-0.17 5,-1.32 6.98,-2.45l-6.98 2.45z"/>
   <path class="fil1 str0" d="M110.3 45.98l4.73 -3.53c-2.53,1.18 -2.81,0.7 -4.73,3.53z"/>
   <path class="fil1 str0" d="M176.81 53.57l1.52 -2.77c-0.07,0.2 -1.57,-1.53 -1.52,2.77z"/>
   <path class="fil1 str0" d="M119.55 49.51l-2.08 -3.24c0.65,2.06 -0.12,0.61 0.59,1.63 1.09,1.57 0.7,0.95 1.49,1.61z"/>
   <path class="fil1 str0" d="M170.41 59.48l5.41 -4.56c-0.24,0.09 -0.62,-0.02 -0.72,0.3l-4.69 4.26z"/>
   <path class="fil1 str0" d="M197.29 159.13c0.91,1.59 0.74,1.24 1.55,2.6 -0.86,-3.29 -1.2,-2.2 -1.55,-2.6z"/>
   <path class="fil1 str0" d="M167.44 61.43l2.97 -1.95c-1.77,0.64 -0.49,0.04 -1.98,0.96 -0.11,0.07 -0.43,0.65 -0.51,0.47 -0.09,-0.18 -0.32,0.35 -0.48,0.52z"/>
  </g>
 </g>
</svg>
