<?xml version="1.0" encoding="UTF-8"?>
<!DOCTYPE svg PUBLIC "-//W3C//DTD SVG 1.1//EN" "http://www.w3.org/Graphics/SVG/1.1/DTD/svg11.dtd">
<!-- Creator: CorelDRAW -->
<svg xmlns="http://www.w3.org/2000/svg" xml:space="preserve" width="0.106661in" height="0.106661in" version="1.1" style="shape-rendering:geometricPrecision; text-rendering:geometricPrecision; image-rendering:optimizeQuality; fill-rule:evenodd; clip-rule:evenodd"
viewBox="0 0 106.66 106.66"
 xmlns:xlink="http://www.w3.org/1999/xlink"
 xmlns:xodm="http://www.corel.com/coreldraw/odm/2003">
 <defs>
  <style type="text/css">
   <![CDATA[
    .fil0 {fill:none}
    .fil1 {fill:black}
   ]]>
  </style>
 </defs>
 <g id="Layer_x0020_1">
  <metadata id="CorelCorpID_0Corel-Layer"/>
  <g id="_2258111618480">
   <g>
    <polygon class="fil0" points="53.33,102.86 53.33,3.8 102.86,3.8 102.86,102.86 "/>
    <path class="fil1" d="M53.33 99.04l0 -5.41c21.42,0.15 37.86,-17.04 39.62,-36.49 2.06,-22.74 -15.25,-41.19 -35.52,-43.25 -1.38,-0.14 -2.75,-0.21 -4.09,-0.21l0 -5.35c3.6,-0 7.7,0.49 12.44,1.81 11.56,3.23 27.74,-2.83 29.43,11.33 0.85,7.1 -0.91,11.9 1.23,18.72 5.49,17.41 -1.19,25.28 -1.15,35.54 0.02,6.68 0.99,12.28 -3.17,16.64 -4.28,4.46 -9.54,3.37 -16.62,3.35 -7.39,-0.03 -13.46,3.16 -22.17,3.31l0 0zm27.13 -8.82c3.29,-3.29 6.15,-6.09 9.34,-9.36 0.69,7.7 -1.61,10.11 -9.34,9.36zm0.02 -73.32c7.87,-0.02 9.46,1.53 9.42,9.44 -2.02,-1.31 -2.58,-3.03 -4.54,-4.98 -1.8,-1.79 -2.72,-2.28 -4.88,-4.46z"/>
    <path class="fil1" d="M53.33 17.26c18.4,-0.04 32.74,13.96 35.65,29.57 4.09,21.87 -11.66,39.44 -28.97,42.61 -2.28,0.41 -4.51,0.62 -6.68,0.64l0 2.1c1.65,-0.04 3.34,-0.15 5.08,-0.38 19.31,-2.48 36.01,-20.64 33.02,-43.27 -2.38,-18.07 -18.1,-33.62 -38.11,-33.39l0 2.13 0 0z"/>
    <path class="fil1" d="M53.33 43.2c2.44,-0.08 4.72,0.83 6.84,2.65 0.12,0.1 0.3,0.26 0.43,0.39 0.12,0.1 0.28,0.26 0.4,0.38 4.68,4.94 3.19,13.88 -4.28,16.82 -1.15,0.46 -2.29,0.69 -3.39,0.72l0 2.13c6.91,0 13.76,-4.65 12.81,-14.04 -0.75,-7.54 -6.76,-11.2 -12.81,-11.24l0 2.19 0 0z"/>
   </g>
   <g>
    <polygon class="fil0" points="53.33,102.86 53.33,3.8 3.8,3.8 3.8,102.86 "/>
    <path class="fil1" d="M53.33 99.04l0 -5.41c-21.42,0.15 -37.86,-17.04 -39.62,-36.49 -2.06,-22.74 15.25,-41.19 35.52,-43.25 1.38,-0.14 2.75,-0.21 4.09,-0.21l0 -5.35c-3.6,-0 -7.7,0.49 -12.44,1.81 -11.56,3.23 -27.74,-2.83 -29.43,11.33 -0.85,7.1 0.91,11.9 -1.23,18.72 -5.49,17.41 1.19,25.28 1.15,35.54 -0.02,6.68 -0.99,12.28 3.17,16.64 4.28,4.46 9.54,3.37 16.62,3.35 7.39,-0.03 13.46,3.16 22.17,3.31l0 0zm-27.13 -8.82c-3.29,-3.29 -6.15,-6.09 -9.34,-9.36 -0.69,7.7 1.61,10.11 9.34,9.36zm-0.02 -73.32c-7.87,-0.02 -9.46,1.53 -9.42,9.44 2.02,-1.31 2.58,-3.03 4.54,-4.98 1.8,-1.79 2.72,-2.28 4.88,-4.46z"/>
    <path class="fil1" d="M53.33 17.26c-18.4,-0.04 -32.74,13.96 -35.65,29.57 -4.09,21.87 11.66,39.44 28.97,42.61 2.28,0.41 4.51,0.62 6.68,0.64l0 2.1c-1.65,-0.04 -3.34,-0.15 -5.08,-0.38 -19.31,-2.48 -36.01,-20.64 -33.02,-43.27 2.38,-18.07 18.1,-33.62 38.11,-33.39l0 2.13 0 0z"/>
    <path class="fil1" d="M53.33 43.2c-2.44,-0.08 -4.72,0.83 -6.84,2.65 -0.12,0.1 -0.3,0.26 -0.43,0.39 -0.12,0.1 -0.28,0.26 -0.4,0.38 -4.68,4.94 -3.19,13.88 4.28,16.82 1.15,0.46 2.29,0.69 3.39,0.72l0 2.13c-6.91,0 -13.76,-4.65 -12.81,-14.04 0.75,-7.54 6.76,-11.2 12.81,-11.24l0 2.19 0 0z"/>
   </g>
  </g>
 </g>
</svg>
