<?xml version="1.0" encoding="UTF-8"?>
<!DOCTYPE svg PUBLIC "-//W3C//DTD SVG 1.1//EN" "http://www.w3.org/Graphics/SVG/1.1/DTD/svg11.dtd">
<!-- Creator: CorelDRAW 2019 (64-Bit) -->
<svg xmlns="http://www.w3.org/2000/svg" xml:space="preserve" width="295px" height="295px" version="1.1" style="shape-rendering:geometricPrecision; text-rendering:geometricPrecision; image-rendering:optimizeQuality; fill-rule:evenodd; clip-rule:evenodd"
viewBox="0 0 294.28 294.28"
 xmlns:xlink="http://www.w3.org/1999/xlink"
 xmlns:xodm="http://www.corel.com/coreldraw/odm/2003">
 <defs>
  <style type="text/css">
   <![CDATA[
    .str0 {stroke:#2B2A29;stroke-width:8.31;stroke-miterlimit:2.61313}
    .fil0 {fill:none}
   ]]>
  </style>
 </defs>
 <g id="Layer_x0020_1">
  <metadata id="CorelCorpID_0Corel-Layer"/>
  <rect class="fil0" width="294.28" height="294.28"/>
  <g id="_2782621574576">
   <path class="fil0 str0" d="M67.84 77.5c0,-5.84 6.48,-12.17 10.32,-15.03 13.46,-10.04 39.85,-16.26 58.2,-16.26 26.52,0 37.3,-0.98 63.06,7.62 6.11,2.04 11.43,4.85 16.47,8.34 4.46,3.08 10.56,9.18 10.56,15.87 0,3.58 -17.22,12.17 -21.26,13.81 -22.04,8.89 -42.19,9.39 -66.14,9.39 -14.51,0 -46.13,-5.82 -58.17,-13.04 -2.54,-1.52 -13.04,-7.98 -13.04,-10.7zm71.21 43.16c28.67,0 50.42,-0.76 77.46,-11.02 5.53,-2.09 13.13,-5.89 17.94,-9.04 29.39,-19.19 13.14,-50.42 -23.98,-62.69 -11.14,-3.68 -32.38,-8.42 -45.5,-8.44 -20.05,-0.03 -30.87,-1.91 -51.35,1.56 -14.87,2.51 -28.98,5.4 -42,11.94 -11.81,5.93 -22.72,14.39 -26.04,28.46 -1.15,4.89 -0.82,10.46 1.05,14.87 1.26,2.96 3.43,5.74 5.49,8 10.97,12.07 37.53,20.27 54.1,23.05 10.13,1.71 21.22,3.31 32.83,3.31z"/>
   <path class="fil0 str0" d="M147.69 213.45c-23.34,0 -50.01,-3.66 -68.09,-15 -3.51,-2.2 -4.97,-3.31 -7.85,-6.16 -5.55,-5.5 -3.17,-6.92 -6.07,-7.97 0,11.5 -0.13,23.07 -0.02,34.55 0.07,6.57 1.82,8.78 4.79,12.48 1.99,2.48 7.44,6.09 10.1,7.7 23.48,14.18 49.65,13.79 77.39,13.79 22.92,0 52.84,-7.87 65.96,-21.43 3.17,-3.27 4.76,-6.72 4.72,-13.09 -0.08,-11.87 -0.01,-23.75 -0.01,-35.62l-0.58 1.04c-3.17,6.3 -5.39,9.92 -11.85,14.04 -17.86,11.4 -45.06,15.67 -68.49,15.67z"/>
   <path class="fil0 str0" d="M65.68 174.61c0,9.01 4.77,13.8 12.08,18.67 11.99,8 28.76,12.25 42.98,14.21l26.4 2.22c3.1,0.02 3.99,-0.44 6.48,-0.57 2.25,-0.13 4.75,0.15 6.99,-0.03 19.01,-1.56 50.98,-7.35 63.53,-22.24 5.95,-7.06 6.02,-15.02 0.55,-22.36 -2.02,-2.7 -3.91,-4.52 -6.87,-6.08l-6.4 4.93c-7.61,6.16 -11.48,9.12 -21.85,12.67 -28.5,9.77 -79.11,9.12 -103.17,-9.73 -1.37,-1.08 -1.75,-1.71 -3.14,-2.79 -2.45,-1.91 -4.08,-4.17 -6.25,-5.62 -4.73,3.17 -11.33,8.97 -11.33,16.72z"/>
   <path class="fil0 str0" d="M164.41 171.91c0.06,-2.49 1.09,-5.29 1.62,-7.55 6.62,-0.55 19.65,-3.13 26.33,-4.96 1.87,-0.51 6.51,-1.78 8.2,-2.59 -1.02,3.81 -9.48,9.2 -14.49,10.86 -5.42,1.8 -14.51,4.24 -21.66,4.24zm-70.67 -14.56c0.04,0 18.03,4.59 25.12,5.63 3.17,0.46 6.65,0.74 9.4,1.38 0.48,2.04 1.46,5.54 1.62,7.55 -8.37,0 -23.24,-3.41 -29.6,-8.15 -1.93,-1.44 -5.28,-4.53 -6.54,-6.41zm44.78 21.58c19.45,0 30.9,0.79 49.57,-5.46 17.62,-5.9 30.9,-20.05 40.95,-35.11 2.57,-3.85 4.82,-7.85 7.1,-11.79 1.79,-3.09 5.88,-10.01 5.96,-13.46l-18.77 10.36c-4.04,4.03 -6.46,13.73 -11.03,18.65 -5.97,6.43 -22.7,10.34 -31.57,12.13 -2.99,0.6 -9.7,1.94 -13.08,2.02 0,-7.59 1.62,-13.49 1.62,-21.58l-44.78 0 2.16 21.58c-9.5,0 -38,-7.05 -44.67,-14.14 -4.42,-4.71 -8.49,-16.92 -10.8,-18.88l-19.52 -10.14c2.72,11.7 22.39,39.71 32.68,47.7 8.5,6.61 8.22,7.62 21.42,12.57 8.16,3.06 21.76,5.55 32.76,5.55z"/>
   <path class="fil0 str0" d="M107.22 92.07c0,1.55 0.69,2.76 1.96,3.44 6.39,3.43 34.35,4.11 42.82,4.11 5.26,0 28.45,-1.6 33.12,-4.11 4.38,-2.35 2.47,-11.44 -13.35,-16.74 -15.43,-5.17 -33.98,-5.08 -49.24,0.01 -4.07,1.36 -6.47,2.18 -9.46,4.57 -2,1.58 -5.85,5.5 -5.85,8.72z"/>
   <path class="fil0 str0" d="M253.97 88.83l-1.63 2.15c-0.59,0.88 -1.06,1.64 -1.71,2.61 -14.9,22.26 -67.64,31.39 -93.77,31.39 -29.85,0 -48.66,0.08 -76.14,-9.1 -11.74,-3.93 -29.56,-11.36 -36.84,-21.96 -0.73,-1.06 -1,-1.54 -1.71,-2.61l-1.84 -2.48c0,3.88 -0.22,5.6 0.98,8.19 0.91,1.97 2.27,3.95 3.73,5.45 17.55,18.07 49.48,25.72 74.67,28.36l18.28 0.6c3.52,0.01 5.21,0.58 9.15,0.57 6.19,-0.02 11.15,-0.57 17.81,-0.55 14.17,0.06 35.94,-4.5 48.08,-8.56 11.62,-3.88 21.83,-8.25 31.01,-15.4 1.84,-1.43 3.28,-3.12 4.94,-4.76 4.19,-4.14 4.99,-5.88 4.99,-13.9z"/>
   <path class="fil0 str0" d="M154.7 255.54c-31.44,0 -42.14,-0.16 -68.44,-10.87 -2.32,-0.94 -3.73,-1.96 -6.55,-2.62 2.23,3.32 13.98,11.58 18.52,13.85 24.23,12.11 65.22,11.95 90.67,3.08 6.1,-2.12 9.26,-4.19 14.14,-7.43 2.35,-1.56 4.06,-2.95 6.23,-4.57 1.11,-0.83 1.93,-1.47 3.04,-2.35 1.33,-1.06 2.33,-1.29 2.81,-3.12 -19.29,9.26 -37.84,14.03 -60.42,14.03z"/>
  </g>
 </g>
</svg>
