<?xml version="1.0" encoding="utf-8"?>
<!-- Generator: Adobe Illustrator 23.0.3, SVG Export Plug-In . SVG Version: 6.00 Build 0)  -->
<svg version="1.1" id="Layer_1" xmlns:xodm="http://www.corel.com/coreldraw/odm/2003"
	 xmlns="http://www.w3.org/2000/svg" xmlns:xlink="http://www.w3.org/1999/xlink" x="0px" y="0px" viewBox="0 0 295 295"
	 style="enable-background:new 0 0 295 295;" xml:space="preserve">
<style type="text/css">
	.st0{fill:none;}
	.st1{fill-rule:evenodd;clip-rule:evenodd;}
</style>
<g id="Layer_x0020_1">
	<rect class="st0" width="295" height="295"/>
	<path class="st1" d="M207.1,178.7c-0.2,0-9.9,1.4-13.3,1.4c-26.9-0.1-79.6,1.9-103.4-1.6L207.1,178.7z M76.7,149.2l143.9,0.4
		l0.1,19.6l-144.3,0.4L76.7,149.2L76.7,149.2z M148.8,142.6c-11.4,0-62.9-1.4-69.7,0.4c0.1-5.7,0.1-3.8,15.8-3.8h107.9
		c8,0,14.3-1.5,15.6,1.8c-1.2,2.6-2.7,1.7-6.5,1.7L148.8,142.6L148.8,142.6z M210.7,132.8c-24.7-0.3-126,1.1-132-0.5l-0.9-2.5
		c0,0-0.5-2.6-0.5-2.6c-0.2-1.6-0.4-2.8-0.1-5.1l143.1,0.3c-1.9,9.9-0.9,9.3-3.8,10C216.5,132.6,210.7,132.8,210.7,132.8z
		 M192.7,113.1l-88.9-0.1c-2.2-13.4-7.3-24.4-11.3-36.3h111.8c-1.7,6.2-4.5,12.1-6.5,18.4C196.1,100.6,195.1,108.2,192.7,113.1z
		 M65.9,70c-0.2-9.6,6.6-7.8,14.9-7.8h134.9c7.8,0,13.7-1.1,13.8,7.9L65.9,70z M148.8,186.6c13,0,26,0,39,0c6.1,0,13.4,0.8,18.8-0.8
		c4.7-1.5,9.9-3.5,14.7-4.5l0.2-5.5c8.1,0.2,5.7-3.6,5.7-11.8c0-4.2,0.5-14.2,0-17.8c-1.1-6.4-3.7,0.5-1.1-14
		c4-21.6-0.6-15.9-26.3-16.6c0-11.3,8.8-28.7,11.9-38.8c20.2-0.9,24.7,3.2,24.6-6.8c-0.1-10.9-5.9-14.5-16.6-14.5l-121.9,0
		c-19.3,0-44.6-5-38,21l25.4,0.1c3.9,11.8,10.9,24.8,12.3,38.8c-6.2,0.5-22.4-1.4-26.7,1.4c-2.7,3.4,1,19.3,1.2,21.2
		c0.6,6.1-0.6,3.2-1.6,6.3c-1.4,4.1-0.9,25.1-0.2,30.2c2.2,1.2,3.2,0.7,4.6,2.1c1.2,1.3,0,1.3,2.1,4.2
		C94.8,190.1,126.2,186.6,148.8,186.6L148.8,186.6z"/>
</g>
</svg>
