<?xml version="1.0" encoding="UTF-8"?>
<!DOCTYPE svg PUBLIC "-//W3C//DTD SVG 1.1//EN" "http://www.w3.org/Graphics/SVG/1.1/DTD/svg11.dtd">
<!-- Creator: CorelDRAW -->
<svg xmlns="http://www.w3.org/2000/svg" xml:space="preserve" width="1.68333in" height="0.399992in" version="1.1" style="shape-rendering:geometricPrecision; text-rendering:geometricPrecision; image-rendering:optimizeQuality; fill-rule:evenodd; clip-rule:evenodd"
viewBox="0 0 1683.33 399.99"
 xmlns:xlink="http://www.w3.org/1999/xlink"
 xmlns:xodm="http://www.corel.com/coreldraw/odm/2003">
 <defs>
  <style type="text/css">
   <![CDATA[
    .str0 {stroke:black;stroke-width:16.67;stroke-miterlimit:2.61313}
    .fil2 {fill:none}
    .fil1 {fill:black;fill-rule:nonzero}
    .fil0 {fill:#3485F5;fill-rule:nonzero}
   ]]>
  </style>
 </defs>
 <g id="Layer_x0020_1">
  <metadata id="CorelCorpID_0Corel-Layer"/>
  <g id="_2016106357840">
   <path class="fil0" d="M131.4 22.89l-87.98 0c-15.96,0 -25.01,4.26 -31.39,10.82 -6.39,6.56 -10.29,15.43 -10.29,25.02 0,9.75 3.72,18.44 10.11,25.01 6.39,6.56 15.61,10.82 31.57,10.82l48.78 0c4.61,0 6.91,0.89 8.51,2.66 1.59,1.6 2.48,3.91 2.48,6.39 0,2.13 -0.71,4.08 -1.95,5.5 -1.59,1.95 -4.08,3.02 -9.04,3.02l-87.27 0 0 30.69 92.94 0c14.19,0 23.77,-4.79 30.33,-12.41 5.5,-6.39 8.87,-14.73 8.87,-23.42 0,-9.4 -3.9,-18.27 -10.29,-24.83 -6.39,-6.56 -15.43,-10.82 -28.91,-10.82l-52.68 0c-3.72,0 -5.5,-0.53 -6.91,-1.77 -1.78,-1.42 -3.02,-3.72 -3.02,-6.38 0,-2.49 0.88,-4.61 2.48,-6.21 1.42,-1.42 3.55,-2.3 7.45,-2.3l86.2 0 0 -31.75 0.01 -0.04zm104.83 119.91c21.46,0 37.25,-7.45 48.24,-19.51 9.58,-10.46 15.43,-24.65 15.43,-40.44 0,-17.38 -7.44,-33.17 -19.33,-44.17 -10.64,-9.76 -25.01,-15.79 -44.34,-15.79l-25.19 0c-19.33,0 -33.7,6.03 -44.34,15.79 -11.88,11 -19.33,26.78 -19.33,44.17 0,15.79 5.85,29.98 15.43,40.44 11,12.06 26.79,19.51 48.25,19.51l25.19 0 -0.01 0zm0 -88.15c10.81,0 17.56,3.01 22.7,7.8 5.5,5.15 8.87,12.59 8.87,20.57 0,7.27 -2.84,14.02 -7.45,18.98 -5.14,5.68 -12.77,9.22 -24.12,9.22l-25.19 0c-11.35,0 -18.98,-3.54 -24.12,-9.22 -4.61,-4.96 -7.45,-11.7 -7.45,-18.98 0,-7.98 3.37,-15.43 8.87,-20.57 5.15,-4.79 11.89,-7.8 22.7,-7.8l25.19 0 -0.01 0zm174.18 88.15c30.15,0 42.04,-11.53 42.04,-38.31l0 -81.59 -32.28 0 0 78.04c0,7.63 -3.9,11.18 -11.89,11.18l-49.84 0c-7.98,0 -11.53,-3.72 -11.53,-11.18l0 -78.04 -32.28 0 0 81.59c0,26.78 11.89,38.31 42.04,38.31l53.75 0 -0.01 0zm207.88 -119.91l-31.39 0 0 77.52c0,2.13 -1.07,3.19 -2.48,3.19 -1.06,0 -2.13,-0.17 -3.02,-1.42l-58.53 -70.06c-7.45,-8.87 -14.54,-11.89 -25.89,-11.89 -16.15,0 -27.85,7.63 -27.85,28.02l0 94.54 31.57 0 0 -81.24c0,-2.13 1.42,-3.37 3.01,-3.37 1.06,0 1.95,0.54 2.84,1.6l65.81 76.09c5.67,6.56 13.3,9.4 23.41,9.4 11.71,0 22.53,-7.63 22.53,-25.72l0 -96.67 -0.01 0.01zm25.54 0c-5.15,0 -7.81,2.48 -7.81,7.45l0 104.83c0,5.14 2.66,7.63 7.81,7.63l64.74 0c21.46,0 37.25,-7.45 48.24,-19.51 9.58,-10.46 15.43,-24.65 15.43,-40.44 0,-17.38 -7.44,-33.17 -19.33,-44.17 -10.65,-9.76 -25.01,-15.79 -44.34,-15.79l-64.74 0 0 0zm64.74 31.75c10.81,0 17.56,3.01 22.7,7.8 5.5,5.15 8.87,12.59 8.87,20.57 0,7.27 -2.84,14.02 -7.45,18.98 -5.14,5.68 -12.77,9.22 -24.12,9.22l-38.14 0c-1.59,0 -2.3,-0.71 -2.3,-2.48l0 -51.61c0,-1.78 0.71,-2.48 2.3,-2.48l38.14 0 -0 0zm87.27 -31.75c-5.32,0 -7.98,2.48 -7.98,7.45l0 104.83c0,5.14 2.66,7.63 7.98,7.63l87.44 0c14.19,0 23.42,-4.61 29.62,-11.89 5.15,-6.03 8.34,-13.83 8.34,-22.35 0,-11 -4.43,-21.46 -13.3,-26.07 7.8,-5.15 12.06,-14.01 12.06,-24.3 0,-10.11 -3.55,-18.09 -9.05,-23.94 -6.91,-7.45 -16.85,-11.35 -29.44,-11.35l-85.67 0 0 -0.01zm24.12 70.59l55.7 0c4.79,0 7.27,1.24 9.22,3.37 1.6,1.78 2.66,4.08 2.66,6.57 0,2.48 -0.89,4.79 -2.48,6.74 -1.78,2.13 -4.61,3.55 -9.4,3.55l-53.21 0c-1.78,0 -2.48,-0.89 -2.48,-2.66l0 -17.56 -0.01 -0.01zm0 -21.46l0 -16.32c0,-1.78 0.71,-2.66 2.48,-2.66l53.39 0c4.43,0 7.09,1.42 8.87,3.54 1.24,1.6 2.13,3.72 2.13,5.85 0,2.13 -0.89,4.26 -2.13,5.85 -1.78,2.3 -4.44,3.72 -8.87,3.72l-55.87 0 0 0.02zm215.69 -29.62c-6.74,-14.9 -17.92,-22.17 -34.59,-22.17 -17.2,0 -28.02,7.27 -34.76,22.17l-42.92 95.07c-0.89,1.95 -1.42,3.55 -1.95,5.32l37.07 0c0.18,-1.42 0.71,-2.84 1.24,-4.26l6.21 -14.37 70.95 0 6.39 14.55c0.53,1.24 1.06,2.48 1.42,4.08l36.19 0c-0.53,-1.77 -1.07,-3.37 -1.95,-5.32l-43.28 -95.07 -0.02 0zm-58 55.34l18.27 -42.93c1.24,-2.84 3.19,-3.72 5.32,-3.72 2.3,0 4.43,1.06 5.5,3.72l18.44 42.93 -47.53 0zm264.63 -74.85l-31.39 0 0 77.52c0,2.13 -1.06,3.19 -2.48,3.19 -1.06,0 -2.13,-0.17 -3.02,-1.42l-58.53 -70.06c-7.45,-8.87 -14.55,-11.89 -25.9,-11.89 -16.15,0 -27.85,7.63 -27.85,28.02l0 94.54 31.57 0 0 -81.24c0,-2.13 1.42,-3.37 3.01,-3.37 1.06,0 1.95,0.54 2.84,1.6l65.8 76.09c5.67,6.56 13.3,9.4 23.41,9.4 11.71,0 22.52,-7.63 22.52,-25.72l0 -96.67 0.02 0.01zm136.05 119.91c5.14,0 7.62,-2.48 7.62,-7.63l0 -58 -31.92 0 0 32.1c0,1.78 -0.71,2.48 -2.31,2.48l-30.69 0c-11.35,0 -18.98,-4.08 -24.13,-9.76 -4.61,-4.96 -7.45,-11.7 -7.45,-18.98 0,-7.98 3.37,-15.43 8.87,-20.57 5.15,-4.79 11.89,-7.8 22.71,-7.8l64.74 0 0 -31.75 -64.74 0c-19.33,0 -33.7,6.03 -44.35,15.79 -11.88,11 -19.33,26.78 -19.33,44.17 0,15.79 5.85,29.98 15.43,40.44 11,12.06 26.78,19.51 48.25,19.51l57.29 0 0.01 0zm41.68 -119.91c-11.35,0 -17.03,5.32 -17.03,16.14l0 87.09c0,11.17 5.68,16.67 16.85,16.67l109.26 0 0 -30.69 -91.17 0c-1.95,0 -2.83,-1.06 -2.83,-3.19l0 -14.54 93.48 0 0 -23.06 -93.48 0 0 -13.66c0,-1.95 0.89,-3.01 2.83,-3.01l91.17 0 0 -31.75 -109.08 0zm156.26 77.33l55.87 0c9.4,0 13.12,3.02 13.12,10.64l0 23.95c0,2.66 0.18,5.32 0.54,7.98l32.46 0c-0.35,-3.37 -0.53,-6.21 -0.53,-11.35l0 -23.94c0,-13.66 -3.55,-20.04 -11.53,-24.83 8.51,-6.2 11.35,-15.25 11.35,-24.83 0,-9.05 -3.72,-17.38 -9.58,-23.59 -6.56,-6.92 -15.96,-11.35 -30.69,-11.35l-85.14 0c-5.32,0 -7.98,2.48 -7.98,7.45l0 112.46 32.11 0 0 -42.57 0 -0.02zm0 -27.31l0 -17.38c0,-1.6 0.89,-2.66 2.66,-2.66l54.1 0c4.07,0 6.92,1.24 8.69,3.2 1.78,1.77 2.66,4.25 2.66,6.74 0,2.31 -0.89,4.43 -2.31,6.21 -1.95,2.3 -4.61,3.9 -9.04,3.9l-56.76 0 0 -0.01z"/>
   <path class="fil1" d="M123.5 330.34l-50.89 0c-1.3,0 -2.7,-0.15 -4.2,-0.46 -1.5,-0.3 -2.98,-0.78 -4.44,-1.44 -1.46,-0.65 -2.87,-1.48 -4.2,-2.52 -1.35,-1.02 -2.52,-2.28 -3.56,-3.74 -1.04,-1.46 -1.85,-3.17 -2.46,-5.09 -0.63,-1.94 -0.93,-4.13 -0.93,-6.54l0 -38.2c0,-1.3 0.15,-2.7 0.46,-4.2 0.3,-1.5 0.78,-2.98 1.43,-4.44 0.65,-1.46 1.5,-2.87 2.56,-4.2 1.06,-1.33 2.3,-2.52 3.78,-3.56 1.46,-1.04 3.15,-1.85 5.07,-2.46 1.91,-0.63 4.07,-0.93 6.5,-0.93l50.89 0 0 14.09 -50.89 0c-1.85,0 -3.26,0.5 -4.22,1.48 -0.98,0.96 -1.48,2.41 -1.48,4.33l0 38.09c0,1.8 0.5,3.2 1.5,4.2 1,0.98 2.39,1.48 4.2,1.48l50.89 0 0 14.11zm89.69 0l-14.11 0 0 -19.09 -49.59 0 0 19.09 -14.11 0 0 -38.91c0,-5.67 0.98,-10.91 2.93,-15.67 1.96,-4.78 4.67,-8.89 8.15,-12.31 3.46,-3.44 7.57,-6.11 12.31,-8.04 4.74,-1.91 9.91,-2.87 15.52,-2.87l31.8 0c0.96,0 1.89,0.19 2.76,0.54 0.87,0.37 1.63,0.87 2.28,1.52 0.65,0.65 1.17,1.41 1.52,2.28 0.37,0.87 0.56,1.8 0.56,2.78l0 70.69zm-63.7 -33.2l49.59 0 0 -30.5 -24.8 0c-0.44,0 -1.35,0.07 -2.74,0.2 -1.39,0.13 -3,0.44 -4.83,0.94 -1.81,0.5 -3.74,1.28 -5.78,2.33 -2.02,1.06 -3.89,2.5 -5.59,4.33 -1.69,1.85 -3.09,4.17 -4.2,6.93 -1.09,2.76 -1.65,6.11 -1.65,10.06l0 5.7zm157.83 -18.44c0,3.22 -0.41,6.09 -1.2,8.63 -0.8,2.52 -1.87,4.76 -3.22,6.7 -1.35,1.93 -2.93,3.57 -4.7,4.96 -1.76,1.37 -3.61,2.5 -5.56,3.39 -1.93,0.89 -3.89,1.52 -5.85,1.93 -1.98,0.39 -3.83,0.59 -5.57,0.59l29.46 25.44 -21.8 0 -29.41 -25.44 -10.15 0 0 -14.11 31.89 0c1.78,-0.15 3.41,-0.52 4.87,-1.11 1.46,-0.59 2.72,-1.41 3.8,-2.41 1.06,-1.02 1.89,-2.24 2.46,-3.67 0.57,-1.43 0.87,-3.06 0.87,-4.91l0 -8.91c0,-0.8 -0.09,-1.39 -0.3,-1.81 -0.2,-0.41 -0.46,-0.72 -0.76,-0.91 -0.31,-0.2 -0.63,-0.33 -0.98,-0.37 -0.35,-0.04 -0.67,-0.06 -0.94,-0.06l-46.56 0 0 63.7 -14.11 0 0 -70.69c0,-0.98 0.19,-1.91 0.56,-2.78 0.35,-0.87 0.85,-1.63 1.48,-2.28 0.63,-0.65 1.39,-1.15 2.26,-1.52 0.87,-0.35 1.81,-0.54 2.81,-0.54l53.56 0c3.15,0 5.8,0.57 7.96,1.7 2.19,1.15 3.94,2.57 5.3,4.3 1.35,1.7 2.33,3.56 2.93,5.56 0.61,1.98 0.91,3.85 0.91,5.59l0 9zm124.44 28.76c0,2.78 -0.35,5.28 -1.06,7.5 -0.7,2.24 -1.63,4.19 -2.78,5.89 -1.17,1.7 -2.52,3.15 -4.07,4.35 -1.56,1.19 -3.17,2.17 -4.83,2.93 -1.67,0.76 -3.35,1.31 -5.07,1.69 -1.72,0.35 -3.33,0.54 -4.85,0.54l-54.43 0 0 -14.11 54.43 0c2.7,0 4.81,-0.8 6.31,-2.39 1.5,-1.59 2.26,-3.72 2.26,-6.39 0,-1.31 -0.2,-2.5 -0.59,-3.59 -0.41,-1.07 -0.98,-2.02 -1.72,-2.81 -0.74,-0.8 -1.65,-1.41 -2.7,-1.85 -1.07,-0.43 -2.26,-0.65 -3.56,-0.65l-32.44 0c-2.28,0 -4.74,-0.41 -7.37,-1.22 -2.65,-0.81 -5.09,-2.11 -7.35,-3.93 -2.28,-1.81 -4.15,-4.19 -5.65,-7.11 -1.5,-2.93 -2.26,-6.5 -2.26,-10.74 0,-4.24 0.76,-7.8 2.26,-10.72 1.5,-2.91 3.37,-5.28 5.65,-7.09 2.26,-1.83 4.7,-3.15 7.35,-3.96 2.63,-0.81 5.09,-1.22 7.37,-1.22l48.02 0 0 14.09 -48.02 0c-2.69,0 -4.76,0.81 -6.26,2.44 -1.5,1.63 -2.26,3.78 -2.26,6.46 0,2.7 0.76,4.85 2.26,6.43 1.5,1.57 3.57,2.37 6.26,2.37l32.44 0 0.11 0c1.52,0.04 3.13,0.24 4.81,0.61 1.7,0.39 3.41,0.98 5.07,1.76 1.69,0.8 3.3,1.81 4.81,3.02 1.52,1.22 2.87,2.67 4.04,4.37 1.17,1.7 2.11,3.65 2.8,5.85 0.69,2.2 1.02,4.7 1.02,7.5zm93.39 -8.57c0,4.74 -0.81,9.09 -2.44,13.07 -1.63,3.98 -3.89,7.41 -6.78,10.3 -2.91,2.91 -6.33,5.15 -10.3,6.76 -3.94,1.61 -8.26,2.43 -12.93,2.43l-19.11 0c-4.67,0 -8.98,-0.81 -12.96,-2.43 -3.98,-1.61 -7.41,-3.85 -10.3,-6.76 -2.91,-2.89 -5.17,-6.31 -6.81,-10.3 -1.65,-3.98 -2.46,-8.33 -2.46,-13.07l0 -14.87c0,-4.7 0.81,-9.06 2.46,-13.06 1.65,-3.98 3.91,-7.43 6.81,-10.3 2.89,-2.87 6.31,-5.13 10.3,-6.76 3.98,-1.63 8.3,-2.44 12.96,-2.44l19.11 0c4.67,0 8.98,0.81 12.93,2.44 3.96,1.63 7.39,3.89 10.3,6.76 2.89,2.87 5.15,6.31 6.78,10.3 1.63,4 2.44,8.35 2.44,13.06l0 14.87zm-14.11 -14.87c0,-2.78 -0.44,-5.31 -1.33,-7.57 -0.89,-2.26 -2.13,-4.19 -3.74,-5.8 -1.61,-1.61 -3.54,-2.85 -5.81,-3.74 -2.26,-0.89 -4.74,-1.33 -7.44,-1.33l-19.11 0c-2.74,0 -5.24,0.44 -7.5,1.33 -2.26,0.89 -4.2,2.13 -5.83,3.74 -1.63,1.61 -2.89,3.54 -3.78,5.8 -0.89,2.26 -1.33,4.8 -1.33,7.57l0 14.87c0,2.78 0.44,5.3 1.33,7.56 0.89,2.26 2.15,4.2 3.78,5.81 1.63,1.61 3.57,2.85 5.83,3.74 2.26,0.89 4.76,1.33 7.5,1.33l19 0c2.74,0 5.24,-0.44 7.52,-1.33 2.26,-0.89 4.2,-2.13 5.81,-3.74 1.63,-1.61 2.89,-3.56 3.78,-5.81 0.89,-2.26 1.33,-4.78 1.33,-7.56l0 -14.87zm104.28 39.22c0,1.02 -0.19,1.96 -0.56,2.83 -0.35,0.85 -0.87,1.61 -1.52,2.24 -0.65,0.63 -1.41,1.13 -2.28,1.5 -0.87,0.35 -1.78,0.54 -2.76,0.54l-31.8 0c-3,0 -6.04,-0.33 -9.11,-0.98 -3.07,-0.65 -6.06,-1.65 -8.93,-3 -2.87,-1.37 -5.57,-3.09 -8.11,-5.19 -2.54,-2.09 -4.74,-4.59 -6.65,-7.46 -1.89,-2.87 -3.39,-6.17 -4.48,-9.87 -1.07,-3.7 -1.63,-7.85 -1.63,-12.41l0 -38.89 14.11 0 0 38.89c0,3.98 0.56,7.35 1.67,10.09 1.09,2.76 2.5,5.06 4.2,6.89 1.69,1.85 3.56,3.3 5.57,4.35 2.04,1.04 3.96,1.81 5.78,2.33 1.83,0.5 3.44,0.81 4.83,0.94 1.39,0.13 2.31,0.19 2.74,0.19l24.8 0 0 -63.69 14.11 0 0 70.69zm94.13 1.09c0,1 -0.2,1.94 -0.57,2.81 -0.39,0.87 -0.89,1.63 -1.52,2.26 -0.63,0.63 -1.39,1.13 -2.26,1.48 -0.87,0.37 -1.78,0.56 -2.76,0.56 -0.87,0 -1.74,-0.17 -2.63,-0.5 -0.89,-0.31 -1.69,-0.85 -2.37,-1.57l-51.54 -53.81 0 54.8 -14.11 0 0 -71.78c0,-1.44 0.41,-2.76 1.22,-3.93 0.81,-1.19 1.85,-2.06 3.13,-2.63 1.33,-0.56 2.7,-0.69 4.11,-0.41 1.43,0.26 2.63,0.93 3.65,1.96l51.54 53.78 0 -54.8 14.11 0 0 71.78zm94.02 -26.54c0,4.74 -0.83,9.09 -2.46,13.07 -1.65,3.98 -3.93,7.41 -6.81,10.28 -2.89,2.89 -6.33,5.13 -10.31,6.76 -3.98,1.63 -8.3,2.44 -12.96,2.44l-38.09 0c-1,0 -1.94,-0.19 -2.81,-0.54 -0.87,-0.37 -1.61,-0.87 -2.26,-1.5 -0.63,-0.63 -1.13,-1.39 -1.48,-2.24 -0.37,-0.87 -0.54,-1.81 -0.54,-2.83l0 -63.57c0,-0.98 0.17,-1.91 0.54,-2.78 0.35,-0.87 0.85,-1.63 1.48,-2.28 0.65,-0.65 1.39,-1.15 2.26,-1.52 0.87,-0.35 1.81,-0.54 2.81,-0.54l38.09 0c4.67,0 8.98,0.81 12.96,2.44 3.98,1.63 7.43,3.87 10.31,6.74 2.89,2.89 5.17,6.31 6.81,10.31 1.63,4 2.46,8.35 2.46,13.06l0 12.69zm-14.11 -12.69c0,-2.76 -0.44,-5.28 -1.33,-7.56 -0.89,-2.28 -2.13,-4.22 -3.76,-5.83 -1.63,-1.59 -3.57,-2.85 -5.83,-3.74 -2.26,-0.89 -4.78,-1.33 -7.52,-1.33l-31.09 0 0 49.59 31.09 0c2.74,0 5.26,-0.44 7.52,-1.31 2.26,-0.89 4.2,-2.15 5.83,-3.76 1.63,-1.61 2.87,-3.54 3.76,-5.8 0.89,-2.26 1.33,-4.78 1.33,-7.57l0 -12.69zm133.72 45.24l-50.89 0c-1.3,0 -2.7,-0.15 -4.2,-0.46 -1.5,-0.3 -2.98,-0.78 -4.44,-1.44 -1.46,-0.65 -2.87,-1.48 -4.2,-2.52 -1.35,-1.02 -2.52,-2.28 -3.56,-3.74 -1.04,-1.46 -1.85,-3.17 -2.46,-5.09 -0.63,-1.94 -0.93,-4.13 -0.93,-6.54l0 -38.2c0,-1.3 0.15,-2.7 0.46,-4.2 0.3,-1.5 0.78,-2.98 1.43,-4.44 0.65,-1.46 1.5,-2.87 2.56,-4.2 1.06,-1.33 2.3,-2.52 3.78,-3.56 1.46,-1.04 3.15,-1.85 5.07,-2.46 1.91,-0.63 4.07,-0.93 6.5,-0.93l50.89 0 0 14.09 -50.89 0c-1.85,0 -3.26,0.5 -4.22,1.48 -0.98,0.96 -1.48,2.41 -1.48,4.33l0 38.09c0,1.8 0.5,3.2 1.5,4.2 1,0.98 2.39,1.48 4.2,1.48l50.89 0 0 14.11zm93.87 -31.46c0,4.74 -0.81,9.09 -2.44,13.07 -1.63,3.98 -3.89,7.41 -6.78,10.3 -2.91,2.91 -6.33,5.15 -10.3,6.76 -3.94,1.61 -8.26,2.43 -12.93,2.43l-19.11 0c-4.67,0 -8.98,-0.81 -12.96,-2.43 -3.98,-1.61 -7.41,-3.85 -10.3,-6.76 -2.91,-2.89 -5.17,-6.31 -6.81,-10.3 -1.65,-3.98 -2.46,-8.33 -2.46,-13.07l0 -14.87c0,-4.7 0.81,-9.06 2.46,-13.06 1.65,-3.98 3.91,-7.43 6.81,-10.3 2.89,-2.87 6.31,-5.13 10.3,-6.76 3.98,-1.63 8.3,-2.44 12.96,-2.44l19.11 0c4.67,0 8.98,0.81 12.93,2.44 3.96,1.63 7.39,3.89 10.3,6.76 2.89,2.87 5.15,6.31 6.78,10.3 1.63,4 2.44,8.35 2.44,13.06l0 14.87zm-14.11 -14.87c0,-2.78 -0.44,-5.31 -1.33,-7.57 -0.89,-2.26 -2.13,-4.19 -3.74,-5.8 -1.61,-1.61 -3.54,-2.85 -5.81,-3.74 -2.26,-0.89 -4.74,-1.33 -7.44,-1.33l-19.11 0c-2.74,0 -5.24,0.44 -7.5,1.33 -2.26,0.89 -4.2,2.13 -5.83,3.74 -1.63,1.61 -2.89,3.54 -3.78,5.8 -0.89,2.26 -1.33,4.8 -1.33,7.57l0 14.87c0,2.78 0.44,5.3 1.33,7.56 0.89,2.26 2.15,4.2 3.78,5.81 1.63,1.61 3.57,2.85 5.83,3.74 2.26,0.89 4.76,1.33 7.5,1.33l19 0c2.74,0 5.24,-0.44 7.52,-1.33 2.26,-0.89 4.2,-2.13 5.81,-3.74 1.63,-1.61 2.89,-3.56 3.78,-5.81 0.89,-2.26 1.33,-4.78 1.33,-7.56l0 -14.87zm118.59 46.33l-14.2 0 0 -46.33 -25.02 44c-0.61,1.13 -1.48,1.96 -2.57,2.56 -1.11,0.57 -2.3,0.87 -3.56,0.87 -1.24,0 -2.39,-0.3 -3.44,-0.87 -1.07,-0.59 -1.91,-1.43 -2.52,-2.56l-25.13 -44 0 46.33 -14.11 0 0 -71.78c0,-1.63 0.48,-3.07 1.44,-4.33 0.96,-1.28 2.22,-2.13 3.78,-2.56 0.76,-0.19 1.52,-0.24 2.28,-0.19 0.76,0.06 1.48,0.2 2.19,0.48 0.7,0.28 1.35,0.65 1.93,1.15 0.59,0.48 1.07,1.07 1.46,1.76l32.13 55.81 32.11 -55.81c0.83,-1.37 1.98,-2.35 3.44,-2.93 1.46,-0.59 3,-0.69 4.59,-0.28 1.52,0.43 2.76,1.28 3.74,2.56 0.98,1.26 1.46,2.7 1.46,4.33l0 71.78zm106.93 0l-14.2 0 0 -46.33 -25.02 44c-0.61,1.13 -1.48,1.96 -2.57,2.56 -1.11,0.57 -2.3,0.87 -3.56,0.87 -1.24,0 -2.39,-0.3 -3.44,-0.87 -1.07,-0.59 -1.91,-1.43 -2.52,-2.56l-25.13 -44 0 46.33 -14.11 0 0 -71.78c0,-1.63 0.48,-3.07 1.44,-4.33 0.96,-1.28 2.22,-2.13 3.78,-2.56 0.76,-0.19 1.52,-0.24 2.28,-0.19 0.76,0.06 1.48,0.2 2.19,0.48 0.7,0.28 1.35,0.65 1.93,1.15 0.59,0.48 1.07,1.07 1.46,1.76l32.13 55.81 32.11 -55.81c0.83,-1.37 1.98,-2.35 3.44,-2.93 1.46,-0.59 3,-0.69 4.59,-0.28 1.52,0.43 2.76,1.28 3.74,2.56 0.98,1.26 1.46,2.7 1.46,4.33l0 71.78zm92.61 -7.11c0,1.02 -0.19,1.96 -0.56,2.83 -0.35,0.85 -0.87,1.61 -1.52,2.24 -0.65,0.63 -1.41,1.13 -2.28,1.5 -0.87,0.35 -1.78,0.54 -2.76,0.54l-31.8 0c-3,0 -6.04,-0.33 -9.11,-0.98 -3.07,-0.65 -6.06,-1.65 -8.93,-3 -2.87,-1.37 -5.57,-3.09 -8.11,-5.19 -2.54,-2.09 -4.74,-4.59 -6.65,-7.46 -1.89,-2.87 -3.39,-6.17 -4.48,-9.87 -1.07,-3.7 -1.63,-7.85 -1.63,-12.41l0 -38.89 14.11 0 0 38.89c0,3.98 0.56,7.35 1.67,10.09 1.09,2.76 2.5,5.06 4.2,6.89 1.69,1.85 3.56,3.3 5.57,4.35 2.04,1.04 3.96,1.81 5.78,2.33 1.83,0.5 3.44,0.81 4.83,0.94 1.39,0.13 2.31,0.19 2.74,0.19l24.8 0 0 -63.69 14.11 0 0 70.69zm94.13 1.09c0,1 -0.2,1.94 -0.57,2.81 -0.39,0.87 -0.89,1.63 -1.52,2.26 -0.63,0.63 -1.39,1.13 -2.26,1.48 -0.87,0.37 -1.78,0.56 -2.76,0.56 -0.87,0 -1.74,-0.17 -2.63,-0.5 -0.89,-0.31 -1.69,-0.85 -2.37,-1.57l-51.54 -53.81 0 54.8 -14.11 0 0 -71.78c0,-1.44 0.41,-2.76 1.22,-3.93 0.81,-1.19 1.85,-2.06 3.13,-2.63 1.33,-0.56 2.7,-0.69 4.11,-0.41 1.43,0.26 2.63,0.93 3.65,1.96l51.54 53.78 0 -54.8 14.11 0 0 71.78zm30.59 6.02l-14.11 0 0 -77.8 14.11 0 0 77.8zm86.8 -63.7l-31.07 0 0 63.7 -14.11 0 0 -63.7 -31.15 0 0 -14.09 76.33 0 0 14.09zm84.46 11.94c0,3.22 -0.41,6.09 -1.22,8.63 -0.81,2.54 -1.89,4.76 -3.22,6.7 -1.33,1.93 -2.91,3.59 -4.69,4.96 -1.8,1.37 -3.65,2.5 -5.57,3.39 -1.91,0.89 -3.85,1.52 -5.83,1.93 -1.96,0.39 -3.81,0.59 -5.56,0.59l-5.69 0 0 25.56 -14.22 0 0 -25.56 -5.65 0c-1.72,0 -3.59,-0.2 -5.56,-0.59 -1.96,-0.41 -3.93,-1.04 -5.85,-1.93 -1.94,-0.89 -3.8,-2.02 -5.57,-3.39 -1.76,-1.37 -3.33,-3.04 -4.69,-4.96 -1.35,-1.94 -2.44,-4.19 -3.26,-6.74 -0.81,-2.54 -1.22,-5.41 -1.22,-8.59l0 -26.04 14.11 0 0 26.04c0,1.85 0.3,3.5 0.87,4.96 0.57,1.46 1.39,2.72 2.44,3.78 1.04,1.04 2.31,1.85 3.81,2.41 1.5,0.56 3.19,0.85 5.02,0.85l25.44 0c1.33,-0.22 2.72,-0.5 4.13,-0.85 1.41,-0.33 2.69,-0.93 3.85,-1.76 1.15,-0.83 2.11,-2 2.87,-3.48 0.76,-1.48 1.15,-3.44 1.15,-5.91l0 -26.04 14.09 0 0 26.04z"/>
   <path class="fil2 str0" d="M43.45 202.96l1596.11 0c16.72,-0.01 30.28,13.55 30.28,30.27l0 116.26c0,16.71 -13.56,30.27 -30.28,30.27l-1596.11 0.01c-16.72,-0.01 -30.28,-13.57 -30.28,-30.29l0 -116.24c0,-16.73 13.56,-30.29 30.28,-30.29l0 0.01z"/>
  </g>
 </g>
</svg>
